<svg width="466" height="134" viewBox="0 0 466 134" fill="none" xmlns="http://www.w3.org/2000/svg">
<path d="M46.9704 28.23L104.55 105.2H91.5104L33.9404 28.23H46.9704Z" fill="white"/>
<path d="M118.49 0H16.1802C12.0603 0.0105909 8.11303 1.65461 5.20361 4.57153C2.29419 7.48845 0.660143 11.4402 0.660156 15.56V117.84C0.660155 121.965 2.29796 125.921 5.21387 128.839C8.12977 131.757 12.0849 133.397 16.21 133.4H118.53C122.65 133.389 126.597 131.745 129.507 128.828C132.416 125.912 134.05 121.96 134.05 117.84V15.56C134.05 13.5166 133.648 11.4933 132.866 9.60547C132.084 7.71764 130.938 6.00231 129.493 4.55743C128.048 3.11255 126.333 1.96641 124.445 1.18445C122.557 0.402485 120.534 0 118.49 0ZM88.4302 111.35L62.2202 76.35L29.7803 111.35H21.4399L58.4902 71.35L21.6602 22.08H50.04L74.1802 54.36L104.06 22.08H112.4L77.9102 59.34L116.8 111.34L88.4302 111.35Z" fill="white"/>
<path d="M208.09 39.4399V49.37H191.75V100.75H179.45V49.37H163.12V39.4399H208.09Z" fill="white"/>
<path d="M284.5 52.0898L270.27 100.75H257.01L248.14 66.7498L239.27 100.75H225.919L211.6 52.0898H224.07L232.68 89.1498L241.99 52.0898H254.99L264.12 89.0898L272.729 52.0898H284.5Z" fill="white"/>
<path d="M292.01 44.2299C291.31 43.5727 290.757 42.7752 290.386 41.8894C290.016 41.0037 289.837 40.0497 289.86 39.0899C289.837 38.13 290.016 37.1761 290.386 36.2903C290.757 35.4046 291.31 34.607 292.01 33.9499C292.729 33.2664 293.577 32.7324 294.504 32.3788C295.431 32.0252 296.419 31.859 297.41 31.8899C298.402 31.859 299.39 32.0252 300.317 32.3788C301.243 32.7324 302.091 33.2664 302.81 33.9499C303.51 34.607 304.064 35.4046 304.434 36.2903C304.805 37.1761 304.984 38.13 304.96 39.0899C304.984 40.0497 304.805 41.0037 304.434 41.8894C304.064 42.7752 303.51 43.5727 302.81 44.2299C302.092 44.9152 301.245 45.4503 300.318 45.804C299.391 46.1578 298.402 46.323 297.41 46.2899C296.418 46.323 295.43 46.1578 294.503 45.804C293.575 45.4503 292.728 44.9152 292.01 44.2299ZM303.47 52.0899V100.75H291.17V52.0899H303.47Z" fill="white"/>
<path d="M329.91 62.1898V85.7299C329.849 86.3726 329.922 87.021 330.125 87.6338C330.329 88.2466 330.657 88.8106 331.09 89.2899C332.245 90.1293 333.668 90.517 335.09 90.3798H340.8V100.75H333.07C322.71 100.75 317.526 95.7132 317.52 85.6398V62.1898H311.729V52.0898H317.52V40.0898H329.91V52.0898H340.8V62.1898H329.91Z" fill="white"/>
<path d="M363.99 62.1898V85.7299C363.929 86.3726 364.002 87.021 364.206 87.6338C364.409 88.2466 364.737 88.8106 365.169 89.2899C366.325 90.1302 367.748 90.5179 369.169 90.3798H374.88V100.75H367.15C356.777 100.75 351.593 95.7132 351.6 85.6398V62.1898H345.8V52.0898H351.6V40.0898H363.99V52.0898H374.88V62.1898H363.99Z" fill="white"/>
<path d="M428.66 80.1102H393.06C393.174 83.2345 394.497 86.1924 396.75 88.3602C398.923 90.3668 401.794 91.4436 404.75 91.3602C409.31 91.3602 412.56 89.4002 414.5 85.4802H427.76C426.391 90.1047 423.555 94.1586 419.68 97.0302C415.43 100.128 410.267 101.719 405.01 101.55C400.611 101.62 396.269 100.545 392.41 98.4302C388.724 96.3816 385.704 93.3165 383.71 89.6002C381.569 85.5463 380.495 81.0139 380.591 76.4302C380.49 71.822 381.549 67.2623 383.67 63.1702C385.62 59.4622 388.614 56.4064 392.28 54.3801C396.188 52.2765 400.573 51.2189 405.01 51.3101C409.341 51.2422 413.617 52.2744 417.44 54.3101C421.044 56.2435 424.006 59.1874 425.96 62.7802C428.023 66.6575 429.056 70.9993 428.96 75.3901C428.986 76.969 428.886 78.5474 428.66 80.1102ZM416.24 71.8402C416.266 70.401 415.972 68.9741 415.381 67.6618C414.79 66.3495 413.915 65.1844 412.82 64.2501C410.542 62.3236 407.633 61.3053 404.651 61.3901C401.832 61.3063 399.087 62.2965 396.97 64.1602C394.802 66.169 393.44 68.8995 393.14 71.8402H416.24Z" fill="white"/>
<path d="M456.43 53.5798C459.097 52.0879 462.113 51.3321 465.169 51.3898V64.2998H461.919C458.046 64.2998 455.133 65.2065 453.18 67.0198C451.226 68.8331 450.226 71.9964 450.18 76.5098V100.75H437.89V52.0898H450.18V59.6398C451.718 57.1245 453.868 55.0397 456.43 53.5798Z" fill="white"/>
</svg>
