<svg width="79" height="81" viewBox="0 0 79 81" fill="none" xmlns="http://www.w3.org/2000/svg">
<path d="M0 6.47842C0 3.33403 2.61366 0.783455 5.83795 0.783455H73.162C76.3862 0.783455 79 3.33403 79 6.47842V74.5897C79 77.7352 76.3862 80.2847 73.162 80.2847H5.83795C2.61366 80.2847 0 77.7352 0 74.5897V6.47842Z" fill="white"/>
<path fill-rule="evenodd" clip-rule="evenodd" d="M23.9462 67.3342V31.435H12.014V67.3342H23.9462ZM17.98 26.5335C22.141 26.5335 24.7309 23.7769 24.7309 20.3319C24.6534 16.8093 22.1411 14.1291 18.059 14.1291C13.9773 14.1291 11.3086 16.8093 11.3086 20.3319C11.3086 23.7769 13.8979 26.5335 17.9023 26.5335H17.98Z" fill="#A4A4A4"/>
<path fill-rule="evenodd" clip-rule="evenodd" d="M30.5508 67.3342H42.4829V47.2866C42.4829 46.2137 42.5605 45.1418 42.8755 44.3748C43.7381 42.2311 45.7015 40.0109 48.9978 40.0109C53.3155 40.0109 55.0427 43.303 55.0427 48.129V67.3342H66.9739V46.7501C66.9739 35.7235 61.0871 30.5926 53.2367 30.5926C46.7996 30.5926 43.9736 34.1906 42.4036 36.6413H42.4832V31.435H30.5511C30.7077 34.8035 30.5508 67.3342 30.5508 67.3342Z" fill="#A4A4A4"/>
</svg>
