<svg width="103" height="79" viewBox="0 0 103 79" fill="none" xmlns="http://www.w3.org/2000/svg">
<path d="M86.4699 6.61087C79.859 3.54729 72.8182 1.28993 65.4011 0C64.4874 1.61241 63.4125 3.81603 62.7137 5.58968C54.8667 4.40724 47.0734 4.40724 39.3876 5.58968C38.6352 3.81603 37.5603 1.61241 36.6466 0C29.2295 1.28993 22.1886 3.54729 15.5778 6.61087C2.24855 26.7122 -1.35249 46.33 0.421154 65.6251C9.28939 72.236 17.8351 76.2132 26.2734 78.8468C28.3695 75.9983 30.1969 72.9347 31.8093 69.7636C28.7458 68.6349 25.8434 67.1838 23.1023 65.5176C23.8548 64.9802 24.5535 64.3889 25.2522 63.8515C42.0749 71.6985 60.2951 71.6985 76.9029 63.8515C77.6016 64.4427 78.3003 64.9802 79.0528 65.5176C76.3117 67.1838 73.3556 68.5812 70.3458 69.7636C71.9582 72.9347 73.7856 75.9983 75.8817 78.8468C84.32 76.2132 92.9195 72.236 101.734 65.6251C103.83 43.2127 98.1329 23.8099 86.5774 6.61087H86.4699ZM34.0667 53.8008C29.0145 53.8008 24.876 49.1248 24.876 43.3739C24.876 37.623 28.907 32.947 34.0667 32.947C39.2264 32.947 43.3111 37.623 43.2574 43.3739C43.2574 49.0711 39.2264 53.8008 34.0667 53.8008ZM67.9809 53.8008C62.9287 53.8008 58.7902 49.1248 58.7902 43.3739C58.7902 37.623 62.8212 32.947 67.9809 32.947C73.1406 32.947 77.2254 37.623 77.1717 43.3739C77.1717 49.0711 73.1406 53.8008 67.9809 53.8008Z" fill="white"/>
</svg>
