<svg width="521" height="138" viewBox="0 0 521 138" fill="none" xmlns="http://www.w3.org/2000/svg">
<path d="M149.37 41.4902H211.37L205.66 58.5502H189.41V123.84H169.46V58.5703H149.37V41.4902ZM313.67 41.4902V58.5502H333.75V123.84H353.75V58.5703H369.97L375.7 41.5103L313.67 41.4902ZM224.86 60.9302C227.422 60.9249 229.876 59.9038 231.685 58.0909C233.494 56.278 234.51 53.8214 234.51 51.2603C234.505 48.6991 233.484 46.2446 231.671 44.4355C229.858 42.6263 227.402 41.6102 224.84 41.6102C223.572 41.6115 222.316 41.8627 221.144 42.3494C219.973 42.8361 218.908 43.5487 218.012 44.4467C217.116 45.3446 216.406 46.4103 215.922 47.5828C215.438 48.7553 215.189 50.0117 215.19 51.2802C215.19 53.8396 216.207 56.2941 218.017 58.1038C219.826 59.9135 222.281 60.9302 224.84 60.9302H224.86ZM215.19 123.84H234.76V67.7702H215.19V123.84ZM305.19 60.4602H282.3L262.57 80.1902V41.5802H243.13L243.07 123.84H262.66V102.41L268.77 96.8402L287.82 123.84H308.82L281.22 84.4002L305.19 60.4602ZM492.92 84.3902L516.84 60.4602H493.96L474.23 80.1902V41.5802H454.76L454.66 123.84H474.29V102.41L480.46 96.8402L499.46 123.84H520.46L492.92 84.3902ZM442.6 90.5202C442.57 94.9708 441.664 99.3718 439.933 103.472C438.202 107.572 435.68 111.291 432.512 114.417C429.343 117.543 425.59 120.014 421.467 121.689C417.343 123.364 412.931 124.211 408.48 124.18C399.493 124.239 390.852 120.726 384.455 114.413C378.058 108.101 374.431 99.5067 374.37 90.5202C374.426 81.5355 378.047 72.9405 384.438 66.6248C390.828 60.3091 399.465 56.7897 408.45 56.8402C417.44 56.7844 426.085 60.3008 432.483 66.6165C438.881 72.9322 442.51 81.5302 442.57 90.5202H442.6ZM425.22 90.5202C425.22 86.0805 423.456 81.8226 420.317 78.6833C417.178 75.5439 412.92 73.7802 408.48 73.7802C404.042 73.7829 399.787 75.5477 396.649 78.6868C393.512 81.8259 391.75 86.0822 391.75 90.5202C391.75 94.9582 393.512 99.2146 396.649 102.354C399.787 105.493 404.042 107.258 408.48 107.26C412.918 107.26 417.174 105.498 420.313 102.361C423.453 99.2236 425.218 94.9682 425.22 90.5302V90.5202Z" fill="white"/>
<path d="M112.769 32.96C105.955 31.4999 99.7857 27.9018 95.1595 22.69C90.5273 17.4785 87.6821 10.9229 87.0394 3.97998V0.97998H63.5194V94.31C63.5078 98.4404 62.1999 102.463 59.7796 105.81C57.3612 109.158 53.955 111.666 50.0394 112.98C46.1209 114.293 41.8892 114.346 37.9393 113.13C33.9884 111.916 30.5186 109.492 28.0194 106.2C25.4852 102.858 24.0838 98.7939 24.0194 94.6C23.9495 90.3924 25.2249 86.2724 27.6595 82.84C30.0782 79.4097 33.5293 76.8416 37.5096 75.51C41.4917 74.1725 45.7963 74.1374 49.7997 75.41V51.52C40.8727 50.2815 31.7818 51.8654 23.7997 56.05C15.8276 60.2397 9.36063 66.8115 5.29966 74.85C1.23983 82.8936 -0.20095 92.0062 1.17955 100.91C2.54884 109.812 6.67186 118.061 12.9696 124.5C18.9732 130.643 26.6702 134.859 35.0794 136.61C43.4881 138.353 52.2252 137.556 60.1795 134.32C68.1053 131.063 74.8852 125.526 79.6595 118.41C84.4501 111.282 87.0089 102.888 87.0096 94.3V46.62C96.5338 53.4245 107.954 57.0658 119.66 57.03V33.67C117.345 33.6712 115.035 33.4333 112.769 32.96Z" fill="white"/>
</svg>
