<svg width="581" height="117" viewBox="0 0 581 117" fill="none" xmlns="http://www.w3.org/2000/svg">
<path d="M245.79 44.3401C242.886 39.7663 238.669 36.1762 233.69 34.0402C228.29 31.5402 221.79 30.3401 213.99 30.3401H181.79V89.2401H211.66C220.06 89.2401 227.16 87.8401 232.86 85.2401C238.07 83.0264 242.494 79.2987 245.56 74.5402C248.373 70.0111 249.831 64.7713 249.76 59.4402C249.873 54.1348 248.498 48.9039 245.79 44.3401ZM223.39 70.3401C220.49 73.0401 216.49 74.3401 211.29 74.3401V74.4402H202.39V45.4402H212.49C217.49 45.4402 221.29 46.6401 223.79 49.2401C226.29 51.8401 227.59 55.1402 227.59 59.4402C227.59 64.0402 226.19 67.6401 223.39 70.3401ZM332.79 63.7401C330.09 61.3401 326.09 59.7401 320.69 58.7401L312.39 57.2401C310.875 56.9928 309.397 56.5561 307.99 55.9402C307.628 55.7737 307.321 55.5055 307.108 55.1682C306.895 54.8309 306.785 54.439 306.79 54.0402C306.79 52.2402 309.39 51.3401 314.59 51.3401C318.136 51.3496 321.666 51.8202 325.09 52.7401C328.245 53.6027 331.272 54.8805 334.09 56.5402V43.3401C331.106 41.5611 327.869 40.2461 324.49 39.4402C320.338 38.4016 316.07 37.8976 311.79 37.9402C307.212 37.8773 302.653 38.5527 298.29 39.9402C294.884 40.9945 291.815 42.9257 289.39 45.5402C287.322 47.8814 286.215 50.9174 286.29 54.0402C286.215 55.7699 286.497 57.4965 287.116 59.1133C287.735 60.7301 288.679 62.2028 289.89 63.4402C292.29 65.8402 296.29 67.7402 301.99 69.0402L311.89 71.3401C313.06 71.5229 314.162 72.0052 315.09 72.7401C315.6 73.3218 315.883 74.067 315.89 74.8401C315.844 75.2657 315.678 75.6696 315.413 76.0056C315.148 76.3417 314.793 76.5962 314.39 76.7401C312.969 77.3391 311.431 77.6125 309.89 77.5402C305.409 77.5118 300.959 76.8037 296.69 75.4402C292.765 74.3497 289.072 72.5537 285.79 70.1401V84.1401C289.555 86.4171 293.631 88.1351 297.89 89.2401C302.359 90.4338 306.965 91.039 311.59 91.0402C319.59 91.0402 325.79 89.5402 330.19 86.5402C332.25 85.2493 333.94 83.4472 335.097 81.3093C336.253 79.1713 336.837 76.7704 336.79 74.3401C336.79 69.6401 335.39 66.1401 332.79 63.7401ZM387.79 73.4402C385.164 74.2366 382.435 74.641 379.69 74.6401C374.39 74.6401 370.29 73.6401 367.49 71.7401C364.69 69.8401 363.29 67.2401 363.29 64.2401C363.279 62.7213 363.671 61.2267 364.427 59.909C365.182 58.5913 366.274 57.4978 367.59 56.7401C370.49 54.8401 374.49 53.8401 379.59 53.8401C382.373 53.8575 385.138 54.2958 387.79 55.1401C390.153 55.9556 392.404 57.0643 394.49 58.4402V43.0402C388.99 39.5402 382.19 37.7401 373.89 37.7401C367.19 37.7401 361.49 38.8401 356.69 41.1401C352.222 43.1496 348.434 46.4157 345.79 50.5402C343.278 54.6248 341.994 59.3458 342.09 64.1401C342 68.9479 343.235 73.6878 345.66 77.8401C348.243 81.9914 351.954 85.3213 356.36 87.4402C361.06 89.8402 366.86 91.0402 373.56 90.9402C380.978 91.0755 388.286 89.136 394.66 85.3401V70.4402C392.518 71.7485 390.206 72.7578 387.79 73.4402ZM459.69 50.5402C457.054 46.4711 453.305 43.2435 448.89 41.2401C444.19 38.9401 438.49 37.8401 431.99 37.8401C425.49 37.8401 419.79 38.9401 415.09 41.2401C410.609 43.181 406.812 46.4204 404.19 50.5402C401.591 54.5538 400.266 59.2598 400.39 64.0402C400.355 68.8717 401.671 73.6169 404.19 77.7401C406.817 81.9527 410.601 85.3201 415.09 87.4402C420.324 89.9588 426.084 91.1929 431.89 91.0402C438.39 91.0402 443.99 89.9402 448.79 87.5402C453.268 85.4154 457.041 82.0484 459.66 77.8401C462.16 73.7134 463.442 68.9642 463.36 64.1401C463.47 59.3442 462.184 54.6196 459.66 50.5402H459.69ZM440.09 72.5402C439.006 73.5875 437.72 74.4026 436.31 74.9356C434.9 75.4686 433.396 75.7084 431.89 75.6401C430.369 75.7081 428.85 75.4686 427.424 74.9359C425.998 74.4033 424.694 73.5884 423.59 72.5402C422.574 71.459 421.785 70.1852 421.27 68.7939C420.755 67.4027 420.523 65.9223 420.59 64.4402C420.523 62.9731 420.755 61.5078 421.27 60.1327C421.786 58.7577 422.575 57.5015 423.59 56.4402C425.59 54.4402 428.39 53.4402 431.89 53.4402C433.389 53.354 434.89 53.5757 436.301 54.0917C437.711 54.6076 439 55.4069 440.09 56.4402C441.112 57.4964 441.906 58.7517 442.422 60.1281C442.938 61.5044 443.166 62.9722 443.09 64.4402C443.157 65.9223 442.926 67.4027 442.41 68.7939C441.895 70.1852 441.106 71.459 440.09 72.5402ZM505.29 38.9402C503.519 38.8949 501.759 39.2386 500.135 39.947C498.511 40.6553 497.062 41.7112 495.89 43.0402C493.49 45.7402 491.69 50.0401 490.59 55.7401V40.0402H470.79V89.3401H490.99V73.8401C490.99 68.1401 492.19 63.8401 494.59 61.1401C496.99 58.4401 500.39 57.0402 504.79 57.0402C507.672 56.9059 510.528 57.6373 512.99 59.1401V40.9402C510.685 39.5088 508 38.8113 505.29 38.9402ZM559.89 28.5402V50.5402C556.59 42.0402 550.09 37.7401 540.49 37.7401C536.074 37.6858 531.736 38.9006 527.99 41.2401C524.292 43.5559 521.341 46.8892 519.49 50.8401C517.42 55.173 516.425 59.9411 516.59 64.7401C516.539 69.3894 517.494 73.9948 519.39 78.2401C521.116 82.0361 523.848 85.287 527.29 87.6401C530.85 89.9702 535.037 91.1565 539.29 91.0402C544.39 91.0402 548.69 90.0401 552.19 87.8401C555.75 85.6015 558.487 82.2678 559.99 78.3401V89.3401H580.19V28.5402H559.89ZM556.99 72.1401C555.923 73.1998 554.634 74.0095 553.216 74.511C551.798 75.0125 550.286 75.1932 548.79 75.0402C547.308 75.1068 545.828 74.8756 544.436 74.3604C543.045 73.8451 541.771 73.0562 540.69 72.0402C539.652 71.0324 538.839 69.8164 538.305 68.472C537.771 67.1277 537.527 65.6854 537.59 64.2401C537.55 62.7976 537.804 61.362 538.337 60.0209C538.87 58.6798 539.671 57.4615 540.69 56.4402C541.791 55.4235 543.083 54.635 544.49 54.1201C545.898 53.6052 547.393 53.3741 548.89 53.4402C550.388 53.3651 551.886 53.592 553.295 54.1073C554.704 54.6227 555.994 55.416 557.09 56.4402C558.086 57.4533 558.865 58.6583 559.381 59.982C559.897 61.3056 560.138 62.7203 560.09 64.1401C560.163 65.6164 559.924 67.0914 559.39 68.4695C558.856 69.8477 558.039 71.0982 556.99 72.1401ZM266.79 26.6401C261.19 26.6401 256.69 30.7402 256.69 35.9402C256.69 41.1402 261.19 45.2401 266.79 45.2401C272.39 45.2401 276.89 41.1402 276.89 35.9402C276.89 30.7402 272.39 26.6401 266.79 26.6401ZM256.69 51.6401V89.6401H276.89V51.6401C273.693 53.0053 270.252 53.7091 266.775 53.7091C263.298 53.7091 259.858 53.0053 256.66 51.6401H256.69Z" fill="white"/>
<path d="M127.05 10.4402C117.214 5.87998 106.827 2.61925 96.15 0.740234C94.85 3.14023 93.25 6.44025 92.15 8.94025C80.7798 7.24055 69.2201 7.24055 57.8499 8.94025C56.7499 6.34025 55.1499 3.14023 53.8499 0.740234C43.137 2.60447 32.7148 5.86562 22.8499 10.4402C3.24993 40.0402 -2.05002 68.8402 0.649977 97.3402C12.0595 105.961 24.8849 112.526 38.5499 116.74C41.648 112.527 44.3591 108.042 46.65 103.34C42.207 101.659 37.9232 99.5844 33.8499 97.1402C34.9267 96.3622 35.9616 95.5277 36.95 94.6402C61.65 106.14 88.4499 106.14 112.85 94.6402C113.85 95.5402 114.95 96.3402 115.95 97.1402C111.856 99.5459 107.576 101.619 103.15 103.34C105.478 108.021 108.188 112.503 111.25 116.74C124.959 112.51 137.82 105.911 149.25 97.2402C152.45 64.3402 143.95 35.7402 127.05 10.4402ZM50.0499 79.8402C42.6499 79.8402 36.5499 72.9403 36.5499 64.5403C36.5499 56.1403 42.4499 49.2402 50.0499 49.2402C57.6499 49.2402 63.6499 56.1403 63.5499 64.5403C63.4499 72.9403 57.5499 79.8402 50.0499 79.8402ZM99.8499 79.8402C92.4499 79.8402 86.3499 72.9403 86.3499 64.5403C86.3499 56.1403 92.2499 49.2402 99.8499 49.2402C107.45 49.2402 113.45 56.1403 113.35 64.5403C113.25 72.9403 107.45 79.8402 99.8499 79.8402Z" fill="white"/>
</svg>
