<svg width="539" height="125" viewBox="0 0 539 125" fill="none" xmlns="http://www.w3.org/2000/svg">
<path d="M492.95 95.3501H505.45V75.1201L522.9 95.3501H538.2L517.89 72.0301L535.24 51.8401H521.32L505.45 70.4701V29.3301L492.95 30.9701V95.3701V95.3501ZM464.11 50.7001C450.22 50.7001 440.58 60.0401 440.58 73.5701C440.58 87.1001 450.22 96.4501 464.11 96.4501C478 96.4501 487.63 87.1101 487.63 73.5701C487.63 60.0301 477.99 50.7001 464.11 50.7001ZM464.11 85.7901C457.68 85.7901 453.27 80.7901 453.27 73.5701C453.27 66.3501 457.68 61.3601 464.11 61.3601C470.54 61.3601 474.95 66.3601 474.95 73.5701C474.95 80.7801 470.54 85.8401 464.11 85.8401V85.7901ZM413.29 50.7001C399.4 50.7001 389.76 60.0401 389.76 73.5701C389.76 87.1001 399.4 96.4501 413.29 96.4501C427.18 96.4501 436.81 87.1101 436.81 73.5701C436.81 60.0301 427.17 50.7001 413.29 50.7001ZM413.29 85.7901C406.85 85.7901 402.45 80.7901 402.45 73.5701C402.45 66.3501 406.85 61.3601 413.29 61.3601C419.73 61.3601 424.13 66.3601 424.13 73.5701C424.13 80.7801 419.72 85.8401 413.29 85.8401V85.7901ZM365.43 50.7001C359.65 50.7001 354.85 52.9701 351.85 57.1301V29.3101L339.33 30.9401V95.3301H350.44L350.65 88.6101C353.65 93.6101 358.91 96.4501 365.43 96.4501C377.31 96.4501 385.99 86.8101 385.99 73.5701C385.99 60.3301 377.34 50.7001 365.43 50.7001ZM362.43 85.7901C356 85.7901 351.59 80.7901 351.59 73.5701C351.59 66.3501 356 61.3601 362.43 61.3601C368.86 61.3601 373.27 66.3601 373.27 73.5701C373.27 80.7801 368.9 85.8401 362.47 85.8401L362.43 85.7901ZM314.23 86.3501C307.59 86.3501 302.82 83.2701 301.23 77.9501H332.04C332.342 76.35 332.512 74.728 332.55 73.1001C332.55 59.1001 324.72 50.7001 311.55 50.7001C298.38 50.7001 289.06 60.0401 289.06 73.5701C289.06 87.2901 298.7 96.4501 313.06 96.4501C320.47 96.4501 327.67 93.9701 332.17 89.8501L327.67 81.9201C323.784 84.7762 319.093 86.3271 314.27 86.3501H314.23ZM311.43 60.4201C317.21 60.4201 320.91 63.9301 320.91 69.3701V69.4201H300.91C302.18 63.6401 305.91 60.4201 311.47 60.4201H311.43ZM269.43 96.4201C275.836 96.4468 282.011 94.025 286.69 89.6501L281.81 81.4301C278.657 84.006 274.74 85.4652 270.67 85.5801C263.73 85.5801 259.1 80.7301 259.1 73.5801C259.1 66.4301 263.72 61.5801 270.67 61.5801C274.337 61.6586 277.892 62.8553 280.86 65.0101L285.86 56.6101C281.86 52.9801 275.61 50.7401 269.45 50.7401C255.87 50.7401 246.27 60.2201 246.27 73.6201C246.27 87.0201 255.88 96.4901 269.46 96.4901L269.43 96.4201ZM229.73 51.8401L229.51 58.6201C226.51 53.5601 221.25 50.7401 214.73 50.7401C202.82 50.7401 194.17 60.3801 194.17 73.6101C194.17 86.8401 202.87 96.4901 214.73 96.4901C221.24 96.4901 226.56 93.6601 229.51 88.6501L229.73 95.3701H240.83V51.8401H229.73ZM217.73 85.8401C211.3 85.8401 206.89 80.8401 206.89 73.6201C206.89 66.4001 211.3 61.4101 217.73 61.4101C224.16 61.4101 228.57 66.4101 228.57 73.6201C228.57 80.8301 224.11 85.8401 217.66 85.8401H217.73ZM193.27 51.9501H182.02V48.2301C182.02 42.6601 184.2 40.5301 189.84 40.5301C191.59 40.5301 193.01 40.5301 193.84 40.6501V31.1101C191.381 30.579 188.875 30.2943 186.36 30.2601C174.86 30.2601 169.55 35.6801 169.55 47.4001V51.8401H162.45V62.3601H169.55V95.2901H182.05V62.3801H191.36L193.27 51.9501Z" fill="white"/>
<path d="M124.88 62.8902C124.871 78.0164 119.333 92.6177 109.308 103.945C99.2832 115.272 85.4632 122.543 70.4502 124.39V81.8402H87.2002L90.6802 62.9202H70.4502V56.2102C70.4502 50.5802 71.6901 46.9102 74.5801 44.7702C74.8999 44.5304 75.2339 44.3101 75.5801 44.1102C77.7601 42.9102 80.6902 42.3703 84.5002 42.3703H86.7402C88.8602 42.3703 90.5702 42.4802 91.6602 42.5902V25.4303C87.2322 24.4724 82.7201 23.9565 78.1902 23.8902C67.8402 23.8902 60.2801 26.3302 55.3101 31.4102C50.3401 36.4902 47.9502 44.2002 47.9502 54.7302V62.9002H35.1702V81.8402H47.9502V123.02C34.5356 119.675 22.6237 111.943 14.1079 101.052C5.59207 90.1605 0.960928 76.7355 0.950195 62.9102C0.950195 46.4827 7.47604 30.728 19.092 19.112C30.708 7.49602 46.4626 0.970235 62.8901 0.970235C71.0267 0.963666 79.0849 2.56026 86.6042 5.66884C94.1236 8.77743 100.957 13.3371 106.714 19.0873C112.47 24.8375 117.038 31.6656 120.155 39.1814C123.272 46.6973 124.878 54.7536 124.88 62.8902Z" fill="white"/>
</svg>
