<svg width="79" height="79" viewBox="0 0 79 79" fill="none" xmlns="http://www.w3.org/2000/svg">
<g clip-path="url(#clip0_3967_25052)">
<path d="M0.03125 58.9064V58.9099C0.0785305 60.6636 0.093114 62.4274 0.388924 64.1703C0.702387 66.0143 1.15048 67.8123 2.00536 69.4859C3.16113 71.751 4.7484 73.6639 6.75199 75.2265C8.19051 76.3484 9.76197 77.2391 11.5015 77.8009C14.0381 78.6191 16.6549 78.9328 19.31 78.9481C20.9665 78.9585 22.622 79 24.2791 78.9931C36.3133 78.9424 48.3479 79.08 60.3825 78.9188C61.9794 78.8971 63.5503 78.7023 65.1176 78.4157C68.1216 77.8659 70.7765 76.5841 73.048 74.5576C75.6952 72.1965 77.4813 69.3069 78.2875 65.8193C78.8151 63.5397 78.9471 61.227 78.9697 58.9061V58.4431C78.9697 58.2635 78.9014 19.0081 78.8951 18.4893C78.8774 17.064 78.7724 15.6494 78.5052 14.2469C78.1802 12.5379 77.7211 10.8727 76.9027 9.32653C76.0386 7.69306 74.9562 6.22429 73.6175 4.94081C71.5668 2.97437 69.2003 1.58374 66.4453 0.848132C63.9569 0.183903 61.4183 0.0368421 58.8612 0.0391447C58.8571 0.0385307 58.8474 0.0125877 58.8468 0H20.1419C20.1411 0.0132017 20.1406 0.0264035 20.1397 0.0391447C18.6885 0.0657016 17.2351 0.0548022 15.7912 0.233793C14.2094 0.430436 12.6429 0.726553 11.1457 1.27949C8.7875 2.15172 6.73863 3.51027 4.98848 5.32397C3.00562 7.37882 1.60793 9.75528 0.866334 12.5226C0.204714 14.9916 0.0607245 17.5097 0.0571938 20.0457" fill="white"/>
<path d="M39.8575 66.6535C39.6936 66.6535 39.5372 66.6475 39.4182 66.6419C39.3238 66.65 39.2263 66.6535 39.1287 66.6535C35.6844 66.6535 33.3815 65.0253 31.3492 63.5875C29.8925 62.5586 28.5188 61.5872 26.9094 61.3194C26.119 61.1883 25.3327 61.1219 24.573 61.1219C23.2042 61.1219 22.1224 61.3342 21.3326 61.4886C20.8466 61.5833 20.4275 61.6648 20.1036 61.6648C19.7644 61.6648 19.3522 61.5896 19.1804 61.0031C19.0443 60.5404 18.9467 60.0921 18.8524 59.6605C18.6166 58.5818 18.4456 57.9234 18.0417 57.8609C13.7219 57.1944 11.1695 56.2125 10.6611 55.0235C10.6078 54.8985 10.578 54.7728 10.5714 54.6484C10.5516 54.294 10.8018 53.9831 11.1512 53.9253C14.5818 53.3603 17.6322 51.5471 20.218 48.5342C22.2211 46.2017 23.2048 43.973 23.3104 43.727C23.315 43.7159 23.3204 43.7042 23.3259 43.6936C23.8244 42.6823 23.9235 41.8084 23.6216 41.0969C23.065 39.7843 21.2215 39.1994 20.0019 38.8124C19.6985 38.7164 19.4116 38.6256 19.1831 38.5348C18.1019 38.1078 16.3238 37.2055 16.5607 35.9601C16.7332 35.0519 17.9344 34.4195 18.9052 34.4195C19.1748 34.4195 19.4136 34.4667 19.6147 34.5611C20.7117 35.0751 21.6986 35.3356 22.5473 35.3356C23.6029 35.3356 24.1127 34.9337 24.2359 34.8195C24.2055 34.2564 24.1684 33.6611 24.1325 33.0981C24.1325 33.0974 24.1317 33.0907 24.1317 33.0907C23.8839 29.1494 23.5749 24.2445 24.8295 21.4317C28.5847 13.0123 36.5482 12.3576 38.8987 12.3576C38.9613 12.3576 39.9232 12.3481 39.9232 12.3481C39.9667 12.3473 40.0138 12.3467 40.0626 12.3467C42.4196 12.3467 50.3997 13.0022 54.1571 21.4267C55.4117 24.2413 55.1024 29.1503 54.8539 33.0958L54.8422 33.2846C54.8081 33.8203 54.7767 34.3273 54.7501 34.8189C54.8662 34.9257 55.3327 35.2941 56.2818 35.3314C57.091 35.3004 58.0207 35.0412 59.0446 34.5618C59.3612 34.4132 59.7116 34.3823 59.9496 34.3823C60.3092 34.3823 60.6752 34.4523 60.9802 34.5796L60.9965 34.5859C61.8653 34.8942 62.4344 35.5106 62.4467 36.1581C62.4576 36.7617 62.009 37.6638 59.8028 38.5352C59.5769 38.6247 59.2886 38.7161 58.984 38.8127C57.7633 39.2002 55.9214 39.7847 55.3647 41.0966C55.0623 41.8081 55.1618 42.6817 55.6604 43.6927C55.6659 43.7038 55.6707 43.715 55.6761 43.7266C55.8296 44.0865 59.5452 52.5587 67.8353 53.9245C68.1845 53.9827 68.4352 54.2938 68.4152 54.6477C68.4079 54.7748 68.3772 54.9019 68.3234 55.0261C67.8186 56.2085 65.2663 57.189 60.9452 57.8564C60.5397 57.9191 60.3688 58.5746 60.1352 59.6476C60.0385 60.0908 59.9401 60.5252 59.8057 60.9817C59.68 61.4111 59.4003 61.6209 58.9512 61.6209H58.8835C58.591 61.6209 58.1767 61.5678 57.6542 61.4656C56.7408 61.2878 55.7164 61.1223 54.4138 61.1223C53.6542 61.1223 52.8681 61.189 52.0768 61.3199C50.4691 61.5876 49.0955 62.5575 47.6415 63.5854C45.6052 65.0251 43.3015 66.6535 39.8575 66.6535Z" fill="#A4A4A4"/>
</g>
<defs>
<clipPath id="clip0_3967_25052">
<rect width="79" height="79" fill="white"/>
</clipPath>
</defs>
</svg>
