<svg width="79" height="79" viewBox="0 0 79 79" fill="none" xmlns="http://www.w3.org/2000/svg">
<g clip-path="url(#clip0_3967_25055)">
<path fill-rule="evenodd" clip-rule="evenodd" d="M39.4875 0.0257568C28.7634 0.0257568 27.4186 0.0712131 23.2069 0.263384C19.0039 0.455084 16.1334 1.12267 13.6217 2.09888C11.025 3.10785 8.82292 4.45808 6.62754 6.65329C4.4323 8.84867 3.0821 11.0508 2.07312 13.6475C1.09691 16.1592 0.429329 19.0297 0.237627 23.2326C0.0454563 27.4444 0 28.7891 0 39.5135C0 50.2375 0.0454563 51.5821 0.237627 55.7941C0.429329 59.9969 1.09691 62.8676 2.07312 65.3791C3.0821 67.9759 4.4323 70.178 6.62754 72.3733C8.82292 74.5685 11.025 75.9187 13.6217 76.9279C16.1334 77.9039 19.0039 78.5715 23.2069 78.7634C27.4186 78.9553 28.7634 79.0007 39.4875 79.0007C50.2117 79.0007 51.5564 78.9553 55.7681 78.7634C59.9712 78.5715 62.8415 77.9039 65.3534 76.9279C67.9499 75.9187 70.152 74.5685 72.3475 72.3733C74.5428 70.178 75.893 67.9759 76.9022 65.3791C77.8782 62.8676 78.5457 59.9969 78.7373 55.7941C78.9296 51.5821 78.975 50.2375 78.975 39.5135C78.975 28.7891 78.9296 27.4444 78.7373 23.2326C78.5457 19.0297 77.8782 16.1592 76.9022 13.6475C75.893 11.0508 74.5428 8.84867 72.3475 6.65329C70.152 4.45808 67.9499 3.10785 65.3534 2.09888C62.8415 1.12267 59.9712 0.455084 55.7681 0.263384C51.5564 0.0712131 50.2117 0.0257568 39.4875 0.0257568ZM26.325 39.5135C26.325 46.7829 32.218 52.6759 39.4875 52.6759C46.7571 52.6759 52.6502 46.7829 52.6502 39.5135C52.6502 32.2438 46.7571 26.3508 39.4875 26.3508C32.218 26.3508 26.325 32.2438 26.325 39.5135ZM19.2102 39.5135C19.2102 28.3143 28.2886 19.2359 39.4875 19.2359C50.6864 19.2359 59.7648 28.3143 59.7648 39.5135C59.7648 50.7121 50.6864 59.7905 39.4875 59.7905C28.2886 59.7905 19.2102 50.7121 19.2102 39.5135ZM60.566 23.1732C63.1832 23.1732 65.3047 21.0518 65.3047 18.4348C65.3047 15.8177 63.1832 13.6962 60.566 13.6962C57.9491 13.6962 55.8277 15.8177 55.8277 18.4348C55.8277 21.0518 57.9491 23.1732 60.566 23.1732Z" fill="white"/>
</g>
<defs>
<clipPath id="clip0_3967_25055">
<rect width="79" height="79" fill="white"/>
</clipPath>
</defs>
</svg>
