<svg width="581" height="135" viewBox="0 0 581 135" fill="none" xmlns="http://www.w3.org/2000/svg">
<path d="M133.94 31.8901C133.9 29.494 133.682 27.1042 133.29 24.7401C132.803 21.8435 131.887 19.0359 130.571 16.4101C129.12 13.6503 127.243 11.1362 125.01 8.96011C121.627 5.65681 117.455 3.27454 112.89 2.04012C108.691 1.02865 104.378 0.571431 100.06 0.680115V0.620117H34.6604V0.680115C32.2404 0.740115 29.7603 0.740115 27.3303 1.04012C24.6458 1.29438 22.0048 1.88916 19.4704 2.81012C15.5353 4.26339 11.98 6.58808 9.07053 9.61012C5.71984 12.9939 3.30744 17.1915 2.07053 21.7901C1.06177 25.9488 0.604161 30.2221 0.710176 34.5001L0.660371 100.17V100.23C0.652717 103.197 0.849696 106.161 1.25021 109.1C1.69305 112.229 2.63175 115.267 4.03049 118.1C5.94825 121.884 8.68034 125.197 12.0305 127.8C14.416 129.721 17.1252 131.201 20.0305 132.17C24.2999 133.478 28.7452 134.119 33.2102 134.07C36.0502 134.07 38.8306 134.18 41.6106 134.18C61.9406 134.07 82.3401 134.3 102.67 134.07C105.356 133.977 108.03 133.68 110.67 133.18C115.668 132.327 120.322 130.073 124.091 126.68C128.543 122.802 131.64 117.602 132.93 111.84C133.724 107.988 134.1 104.062 134.051 100.13V99.3601C134.051 99.1101 133.94 32.7801 133.94 31.8901ZM116.08 93.6701C115.2 95.6701 110.881 97.2801 103.611 98.4001C102.901 98.5201 102.61 99.6401 102.25 101.47C102.07 102.18 101.9 102.95 101.66 103.72C101.599 104.043 101.42 104.33 101.157 104.527C100.894 104.723 100.567 104.813 100.24 104.78H100.12C99.4246 104.769 98.7317 104.692 98.0505 104.55C96.2416 104.169 94.399 103.972 92.5505 103.96C91.2122 103.967 89.8759 104.064 88.5505 104.25C85.8405 104.72 83.5505 106.38 81.0505 108.09C77.6205 110.52 73.7201 113.3 67.9201 113.3H66.6804C60.8304 113.3 56.9903 110.52 53.5603 108.09C51.0803 106.38 48.7705 104.72 46.0505 104.25C44.7251 104.064 43.3888 103.967 42.0505 103.96C40.2028 103.985 38.3614 104.182 36.5505 104.55C35.8709 104.71 35.1776 104.807 34.4802 104.84C34.1308 104.882 33.7788 104.789 33.4948 104.581C33.2109 104.374 33.0163 104.066 32.9504 103.72C32.7104 102.95 32.5303 102.18 32.3503 101.47C31.9403 99.6401 31.7002 98.5201 31.0002 98.4701C23.7202 97.2901 19.4102 95.6301 18.5202 93.6201C18.4331 93.4328 18.3728 93.2342 18.3405 93.0301C18.3408 92.7404 18.4399 92.4594 18.6218 92.2338C18.8037 92.0083 19.0574 91.8517 19.3405 91.7901C25.1305 90.7901 30.2806 87.7901 34.6506 82.6801C36.7857 80.2297 38.5569 77.485 39.9104 74.5301V74.4701C40.3033 73.819 40.5539 73.0919 40.6452 72.3369C40.7366 71.582 40.6664 70.8162 40.4402 70.0901C39.5002 67.9101 36.3605 66.9001 34.3005 66.2501C33.8388 66.1187 33.3845 65.9618 32.9402 65.7801C31.1002 65.0701 28.0902 63.5301 28.5002 61.4001C28.8002 59.8701 30.8102 58.8001 32.5002 58.8001C32.9071 58.8162 33.3088 58.8972 33.6902 59.0401C35.24 59.8384 36.9478 60.2824 38.6902 60.3401C39.7061 60.4162 40.7154 60.1213 41.5305 59.5101C41.4705 58.5701 41.4103 57.5101 41.3503 56.6101V56.5601C40.9403 49.9301 40.4105 41.5601 42.5305 36.8701C48.8605 22.6201 62.3405 21.5001 66.3005 21.5001H68.3005C72.3005 21.5001 85.7403 22.6201 92.1203 36.8701C94.2503 41.6001 93.7205 49.9301 93.3005 56.5601L93.2404 56.9101C93.1904 57.8001 93.1306 58.6801 93.1306 59.5101C93.8493 60.0844 94.751 60.3792 95.6701 60.3401C97.2995 60.2318 98.8896 59.7893 100.341 59.0401C100.828 58.8352 101.352 58.7331 101.881 58.7401C102.49 58.7316 103.093 58.8544 103.651 59.1001C104.276 59.2588 104.842 59.5939 105.281 60.0656C105.721 60.5373 106.016 61.1255 106.131 61.7601C106.131 62.7601 105.36 64.3001 101.64 65.7601C101.28 65.9301 100.75 66.0501 100.28 66.2301C98.2105 66.8801 95.0806 67.8901 94.1306 70.0701C93.8945 70.7947 93.8193 71.5622 93.9109 72.3187C94.0024 73.0753 94.2582 73.8028 94.6604 74.4501V74.5101C94.9004 75.1601 101.23 89.4601 115.24 91.7701C115.523 91.8236 115.775 91.98 115.949 92.2091C116.123 92.4382 116.205 92.7237 116.18 93.0101C116.172 93.2332 116.138 93.4545 116.08 93.6701Z" fill="white"/>
<path d="M173.66 91.54C170.598 90.2872 167.943 88.2104 165.99 85.54C164.086 82.8518 163.071 79.6344 163.09 76.34H175.53C175.557 77.4009 175.794 78.4459 176.228 79.4142C176.663 80.3825 177.285 81.2547 178.06 81.98C179.803 83.4408 182.039 84.1812 184.31 84.05C186.604 84.1825 188.87 83.4909 190.7 82.1C191.451 81.484 192.051 80.7039 192.453 79.8197C192.855 78.9355 193.049 77.9709 193.02 77C193.047 76.2272 192.922 75.4565 192.651 74.7323C192.38 74.0081 191.968 73.3447 191.44 72.78C190.336 71.6338 188.995 70.743 187.51 70.17C185.38 69.347 183.206 68.6393 181 68.05C177.874 67.1751 174.813 66.0825 171.84 64.78C169.449 63.6686 167.367 61.9858 165.78 59.88C163.987 57.3296 163.096 54.2538 163.25 51.14C163.173 47.9486 164.069 44.8095 165.82 42.14C167.618 39.5419 170.123 37.5148 173.04 36.3C176.4 34.9062 180.013 34.2251 183.65 34.3C189.65 34.3 194.5 35.75 198.2 38.65C200.054 40.1013 201.567 41.9413 202.633 44.0405C203.699 46.1397 204.292 48.447 204.37 50.8H191.66C191.614 49.8439 191.365 48.9085 190.929 48.0566C190.493 47.2046 189.879 46.4557 189.13 45.86C187.337 44.4959 185.12 43.8089 182.87 43.92C180.908 43.8134 178.975 44.4328 177.44 45.66C176.75 46.3008 176.213 47.0878 175.866 47.9634C175.52 48.8389 175.374 49.7808 175.44 50.72C175.417 51.4332 175.543 52.1433 175.808 52.8058C176.073 53.4683 176.472 54.0689 176.98 54.57C178.07 55.6445 179.366 56.488 180.79 57.05C182.891 57.8931 185.033 58.6274 187.21 59.25C190.352 60.1355 193.426 61.245 196.41 62.57C198.831 63.7115 200.935 65.4281 202.54 67.57C204.356 70.0995 205.262 73.1697 205.11 76.28C205.13 79.321 204.298 82.3068 202.71 84.9C201.022 87.6321 198.595 89.8302 195.71 91.24C192.28 92.8827 188.511 93.6914 184.71 93.6C180.924 93.6812 177.162 92.9798 173.66 91.54Z" fill="white"/>
<path d="M253.81 51.6302C257.183 55.0836 258.87 59.9036 258.87 66.0902V93.0302H247.26V67.6702C247.26 64.0202 246.35 61.2202 244.53 59.2502C243.571 58.2462 242.408 57.459 241.12 56.9415C239.831 56.4241 238.447 56.1884 237.06 56.2502C235.656 56.1855 234.254 56.4194 232.948 56.9365C231.641 57.4537 230.459 58.2423 229.479 59.2502C227.629 61.2502 226.7 64.0202 226.7 67.6702V93.0302H215.1V47.1102H226.66V52.8402C228.236 50.8284 230.269 49.2207 232.59 48.1502C235.067 47.0021 237.769 46.4214 240.5 46.4502C246.006 46.4436 250.443 48.1702 253.81 51.6302Z" fill="white"/>
<path d="M269.66 57.5499C271.348 54.136 273.961 51.264 277.2 49.2599C280.411 47.3208 284.099 46.3165 287.85 46.3599C290.975 46.2883 294.069 46.9999 296.85 48.4299C299.274 49.6902 301.386 51.4773 303.03 53.6599V47.1099H314.72V93.0299H303.06V86.3199C301.456 88.5687 299.337 90.3999 296.88 91.6599C294.078 93.1138 290.956 93.8426 287.8 93.7799C284.062 93.8109 280.394 92.7698 277.229 90.7799C273.99 88.7241 271.381 85.8139 269.689 82.3699C267.782 78.4946 266.832 74.2183 266.919 69.8999C266.826 65.6228 267.766 61.3863 269.66 57.5499ZM301.37 62.8199C300.341 60.8842 298.793 59.2738 296.9 58.1699C295.059 57.1021 292.968 56.543 290.84 56.5499C288.734 56.529 286.662 57.0747 284.84 58.1299C282.972 59.2309 281.44 60.8216 280.41 62.7299C279.232 64.9361 278.646 67.4099 278.709 69.9099C278.655 72.4313 279.24 74.9254 280.41 77.1599C281.438 79.1241 282.984 80.77 284.88 81.9199C286.666 83.0086 288.718 83.5831 290.81 83.5799C292.936 83.586 295.026 83.0306 296.87 81.9699C298.763 80.8659 300.311 79.2556 301.34 77.3199C302.495 75.0818 303.066 72.5879 302.999 70.0699C303.083 67.5637 302.533 65.077 301.4 62.8399L301.37 62.8199Z" fill="white"/>
<path d="M343.89 48.4802C346.665 47.0305 349.76 46.3015 352.89 46.3602C356.641 46.3141 360.33 47.3187 363.54 49.2602C366.774 51.2561 369.388 54.1127 371.09 57.5102C373.004 61.3586 373.958 65.6131 373.87 69.9102C373.948 74.2288 372.995 78.5037 371.09 82.3802C369.395 85.8249 366.783 88.735 363.54 90.7902C360.351 92.7897 356.654 93.8309 352.89 93.7902C349.793 93.8564 346.728 93.1411 343.98 91.7102C341.537 90.4481 339.401 88.6664 337.72 86.4902V114.93H326.11V47.1202H337.72V53.7502C339.338 51.5365 341.451 49.7317 343.89 48.4802ZM360.3 62.7302C359.26 60.8126 357.71 59.2204 355.82 58.1302C353.993 57.0867 351.924 56.5418 349.82 56.5502C347.737 56.5459 345.691 57.1057 343.9 58.1702C342.002 59.2894 340.451 60.9128 339.42 62.8602C338.241 65.0768 337.656 67.5605 337.72 70.0702C337.656 72.5799 338.241 75.0636 339.42 77.2802C340.454 79.2251 342.005 80.8477 343.9 81.9702C345.694 83.0271 347.738 83.5831 349.82 83.5802C351.935 83.5911 354.012 83.0166 355.82 81.9202C357.711 80.778 359.258 79.1475 360.3 77.2002C361.479 74.9548 362.064 72.4454 362 69.9102C362.063 67.4102 361.478 64.9364 360.3 62.7302Z" fill="white"/>
<path d="M383.34 48.73C385.818 44.3184 389.461 40.6724 393.87 38.19C398.453 35.6413 403.626 34.3412 408.87 34.42C414.916 34.2986 420.852 36.0446 425.87 39.42C430.728 42.7194 434.321 47.5711 436.06 53.18H422.66C421.481 50.5809 419.529 48.4088 417.07 46.96C414.525 45.545 411.651 44.8307 408.74 44.89C405.58 44.8333 402.466 45.65 399.74 47.25C397.097 48.8442 394.966 51.1623 393.6 53.93C392.077 57.078 391.326 60.5438 391.41 64.04C391.337 67.5223 392.087 70.9725 393.6 74.11C394.959 76.8927 397.091 79.2255 399.74 80.83C402.466 82.43 405.58 83.2466 408.74 83.19C411.657 83.2478 414.535 82.5152 417.07 81.07C419.523 79.609 421.472 77.436 422.66 74.84H436C434.288 80.4625 430.707 85.3314 425.85 88.64C420.82 91.9823 414.887 93.7029 408.85 93.57C403.606 93.6488 398.433 92.3487 393.85 89.8C389.45 87.3279 385.809 83.7006 383.32 79.31C380.71 74.6566 379.382 69.3944 379.47 64.06C379.385 58.698 380.72 53.409 383.34 48.73Z" fill="white"/>
<path d="M481.13 48.7299C483.869 50.2792 486.078 52.6174 487.47 55.4399C489.066 58.7582 489.847 62.4092 489.75 66.0899V93.0299H478.14V67.6699C478.14 64.0199 477.23 61.2199 475.4 59.2499C474.444 58.2451 473.283 57.4572 471.996 56.9396C470.709 56.4221 469.325 56.1869 467.939 56.2499C466.536 56.1852 465.134 56.4191 463.828 56.9362C462.521 57.4534 461.339 58.242 460.36 59.2499C458.5 61.2499 457.58 64.0199 457.58 67.6699V93.0299H445.979V31.6899H457.58V52.8399C459.148 50.7919 461.213 49.1777 463.58 48.1499C466.188 46.9931 469.016 46.4132 471.87 46.4499C475.102 46.396 478.292 47.1816 481.13 48.7299Z" fill="white"/>
<path d="M500.56 57.5502C502.255 54.1405 504.866 51.27 508.1 49.2602C511.314 47.3198 515.006 46.3154 518.76 46.3602C521.886 46.2899 524.979 47.0014 527.76 48.4302C530.18 49.6935 532.288 51.4801 533.93 53.6602V47.1102H545.66V93.0302H533.97V86.3202C532.368 88.5665 530.253 90.3973 527.8 91.6602C524.998 93.1129 521.876 93.8417 518.72 93.7802C514.979 93.8126 511.307 92.7714 508.14 90.7802C504.906 88.7181 502.298 85.8095 500.6 82.3702C498.693 78.4949 497.743 74.2186 497.83 69.9002C497.734 65.6239 498.67 61.3875 500.56 57.5502ZM532.27 62.8202C531.242 60.8845 529.694 59.2742 527.8 58.1702C525.962 57.1042 523.874 56.5451 521.75 56.5502C519.644 56.5293 517.572 57.075 515.75 58.1302C513.876 59.2278 512.341 60.8191 511.31 62.7302C510.132 64.9364 509.547 67.4102 509.61 69.9102C509.556 72.4316 510.14 74.9258 511.31 77.1602C512.342 79.1251 513.891 80.771 515.79 81.9202C517.575 83.0114 519.628 83.586 521.72 83.5802C523.844 83.5883 525.931 83.0327 527.77 81.9702C529.664 80.8663 531.212 79.2559 532.24 77.3202C533.401 75.0839 533.972 72.5887 533.9 70.0702C533.979 67.561 533.418 65.073 532.27 62.8402V62.8202Z" fill="white"/>
<path d="M570.5 56.64V78.84C570.443 79.4456 570.514 80.0563 570.707 80.6332C570.899 81.2101 571.211 81.7403 571.62 82.19C572.71 82.9787 574.053 83.3351 575.39 83.19H580.78V92.97H573.48C563.7 92.97 558.807 88.2167 558.8 78.71V56.64H553.33V47.11H558.8V35.75H570.5V47.11H580.78V56.64H570.5Z" fill="white"/>
</svg>
