<svg width="479" height="120" viewBox="0 0 479 120" fill="none" xmlns="http://www.w3.org/2000/svg">
<path fill-rule="evenodd" clip-rule="evenodd" d="M470.33 0.0802028H368.28C365.95 0.0528734 363.703 0.940381 362.02 2.55211C360.337 4.16384 359.353 6.37123 359.28 8.7002V111.21C359.28 115.97 362 119.83 366.88 119.83H468.88C473.77 119.83 478.98 115.97 478.98 111.21V8.7002C478.984 7.56455 478.763 6.43939 478.329 5.3898C477.896 4.34021 477.258 3.38702 476.454 2.58539C475.649 1.78376 474.694 1.1496 473.643 0.719592C472.592 0.28958 471.466 0.0722634 470.33 0.0802028ZM404.87 45.7002H420.99V53.9202H421.17C423.63 49.4902 430.89 44.9902 439.86 44.9902C457.09 44.9902 461.86 54.1402 461.86 71.0802V102.73H444.75V74.2002C444.75 66.6202 441.75 59.9602 434.64 59.9602C426.04 59.9602 421.94 65.7802 421.94 75.3402V102.73H404.86V45.7302L404.87 45.7002ZM376.36 102.7H393.47V45.7002H376.36V102.7ZM395.6 25.7002C395.601 27.1044 395.326 28.4951 394.789 29.7926C394.252 31.0902 393.465 32.2692 392.472 33.2621C391.479 34.255 390.3 35.0424 389.003 35.5792C387.705 36.1159 386.314 36.3915 384.91 36.3902C383.506 36.3915 382.115 36.1159 380.818 35.5792C379.52 35.0424 378.341 34.255 377.348 33.2621C376.355 32.2692 375.568 31.0902 375.031 29.7926C374.494 28.4951 374.219 27.1044 374.22 25.7002C374.219 24.296 374.494 22.9053 375.031 21.6078C375.568 20.3102 376.355 19.1312 377.348 18.1383C378.341 17.1454 379.52 16.358 380.818 15.8212C382.115 15.2845 383.506 15.0089 384.91 15.0102C386.319 15.0089 387.713 15.2861 389.014 15.826C390.315 16.3659 391.496 17.1577 392.49 18.1559C393.483 19.1542 394.27 20.3391 394.803 21.6424C395.337 22.9457 395.608 24.3418 395.6 25.7502V25.7002Z" fill="white"/>
<path d="M342.14 102.73H326.14V95.9399H325.97C322.42 100.06 316.25 103.44 305.79 103.44C291.53 103.44 279.26 92.7099 279.26 74.2799C279.26 56.7199 291.36 44.9899 306.33 44.9899C315.6 44.9899 321.33 48.2899 324.83 52.4899H325V17.1899H342.11L342.14 102.73ZM310.66 57.8399C300.88 57.8399 295.38 64.8399 295.38 74.0899C295.38 83.3399 300.88 90.6299 310.66 90.6299C320.44 90.6299 326.18 83.5499 326.18 74.0899C326.18 64.3599 320.45 57.8399 310.66 57.8399Z" fill="white"/>
<path d="M271.781 93.5402C267.781 98.7702 259.43 103.44 246.01 103.44C228.1 103.44 216.69 91.5802 216.69 72.9502C216.69 56.4002 227.02 44.9502 246.51 44.9502C263.34 44.9502 273.72 55.9502 273.72 75.4402C273.707 76.7358 273.603 78.0289 273.41 79.3102H232.84L232.94 81.0702C234.06 85.9902 237.78 92.0002 246.29 92.0002C249.146 92.0373 251.972 91.4129 254.547 90.176C257.121 88.939 259.375 87.123 261.13 84.8702L271.781 93.5402ZM257.25 68.5402C257.36 62.5402 252.95 56.4202 245.99 56.4202C242.662 56.3716 239.442 57.6015 236.994 59.8563C234.546 62.1112 233.055 65.2193 232.83 68.5402H257.25Z" fill="white"/>
<path d="M216.69 45.7H196.73L176.77 68.5099V17.1899H159.67V102.73H176.77V74.2199L197.87 102.73H218.06L193.88 71.5499L216.69 45.7Z" fill="white"/>
<path d="M91.2402 45.7002H107.36V53.9202H107.54C110 49.4902 117.26 44.9902 126.23 44.9902C143.46 44.9902 148.23 55.9202 148.23 71.0802V102.73H131.12V74.2002C131.12 65.8102 128.12 59.9602 121.01 59.9602C112.41 59.9602 108.31 66.7702 108.31 75.3402V102.73H91.2002V45.7302L91.2402 45.7002Z" fill="white"/>
<path d="M62.7305 102.73H79.8403V45.7302H62.7305V102.73ZM71.2903 36.0102C74.0114 36.0102 76.6213 34.9293 78.5454 33.0052C80.4695 31.081 81.5503 28.4714 81.5503 25.7502C81.5503 23.0291 80.4695 20.4195 78.5454 18.4953C76.6213 16.5712 74.0114 15.4902 71.2903 15.4902C68.5691 15.4929 65.9601 16.5744 64.0349 18.4976C62.1098 20.4209 61.0258 23.029 61.0205 25.7502C61.0232 28.4723 62.1063 31.0819 64.032 33.0058C65.9577 34.9296 68.5682 36.0102 71.2903 36.0102Z" fill="white"/>
<path d="M17.11 17.1899H0V102.73H51.32V85.6199H17.11V17.1899Z" fill="white"/>
</svg>
