<svg width="79" height="79" viewBox="0 0 79 79" fill="none" xmlns="http://www.w3.org/2000/svg">
<g clip-path="url(#clip0_3967_25046)">
<mask id="mask0_3967_25046" style="mask-type:luminance" maskUnits="userSpaceOnUse" x="-16" y="-16" width="111" height="111">
<path d="M-15.8008 -15.8H94.7992V94.7999H-15.8008V-15.8Z" fill="white"/>
</mask>
<g mask="url(#mask0_3967_25046)">
<path d="M79 39.5C79 17.6848 61.3152 5.34058e-05 39.5 5.34058e-05C17.6848 5.34058e-05 0 17.6848 0 39.5C0 58.0247 12.753 73.5683 29.9577 77.8368V51.5706H21.8125V39.5H29.9577V34.2988C29.9577 20.8543 36.042 14.6228 49.2413 14.6228C51.7437 14.6228 56.0617 15.1134 57.8282 15.6041V26.5462C56.8958 26.4481 55.2766 26.399 53.2648 26.399C46.7879 26.399 44.2853 28.8524 44.2853 35.2312V39.5H57.1875L54.971 51.5706H44.2853V78.7107C63.8435 76.3484 79 59.6952 79 39.5Z" fill="white"/>
<path d="M54.971 51.5706L57.1876 39.5H44.2855V35.231C44.2855 28.8523 46.7879 26.399 53.2648 26.399C55.2766 26.399 56.8958 26.448 57.8281 26.5461V15.6041C56.0617 15.1134 51.7437 14.6226 49.2413 14.6226C36.0421 14.6226 29.9577 20.8543 29.9577 34.2988V39.5H21.8125V51.5706H29.9577V77.8368C33.0139 78.5949 36.2095 79 39.5 79C41.1201 79 42.7165 78.9001 44.2855 78.7107V51.5706H54.971Z" fill="#A4A4A4"/>
</g>
</g>
<defs>
<clipPath id="clip0_3967_25046">
<rect width="79" height="79" fill="white"/>
</clipPath>
</defs>
</svg>
