<svg width="300" height="200" viewBox="0 0 300 200" fill="none" xmlns="http://www.w3.org/2000/svg">
<g clip-path="url(#clip0_3646_2486)">
<path d="M78.8409 88.833H109.217V94.5004H97.2731V126.359H90.7053V94.5004H78.8145V88.833H78.8409ZM107.919 99.1879H113.534V104.432H113.64C113.825 103.69 114.169 102.975 114.673 102.286C115.176 101.598 115.785 100.936 116.5 100.38C117.215 99.797 118.009 99.3468 118.883 98.976C119.757 98.6317 120.658 98.4464 121.558 98.4464C122.247 98.4464 122.75 98.4728 123.015 98.4993C123.279 98.5258 123.544 98.5788 123.836 98.6053V104.379C123.412 104.299 122.988 104.246 122.538 104.193C122.088 104.14 121.664 104.114 121.24 104.114C120.234 104.114 119.281 104.326 118.38 104.723C117.48 105.12 116.712 105.729 116.05 106.497C115.388 107.292 114.858 108.245 114.461 109.41C114.063 110.576 113.878 111.9 113.878 113.409V126.333H107.893V99.1879H107.919ZM151.352 126.359H145.472V122.572H145.366C144.625 123.95 143.539 125.035 142.082 125.856C140.626 126.677 139.143 127.101 137.633 127.101C134.058 127.101 131.463 126.227 129.874 124.453C128.285 122.678 127.49 120.004 127.49 116.428V99.1879H133.475V115.846C133.475 118.229 133.926 119.924 134.853 120.904C135.753 121.884 137.051 122.387 138.693 122.387C139.964 122.387 140.997 122.202 141.844 121.804C142.692 121.407 143.38 120.904 143.883 120.242C144.413 119.606 144.784 118.812 145.022 117.911C145.26 117.011 145.366 116.031 145.366 114.972V99.2144H151.352V126.359ZM161.548 117.647C161.733 119.394 162.395 120.613 163.534 121.328C164.699 122.016 166.076 122.387 167.692 122.387C168.248 122.387 168.883 122.334 169.598 122.255C170.313 122.175 171.002 121.99 171.611 121.751C172.247 121.513 172.75 121.142 173.174 120.666C173.571 120.189 173.756 119.58 173.73 118.812C173.703 118.044 173.412 117.408 172.882 116.932C172.353 116.428 171.691 116.058 170.87 115.74C170.049 115.448 169.122 115.184 168.062 114.972C167.003 114.76 165.944 114.522 164.858 114.283C163.746 114.045 162.66 113.727 161.627 113.383C160.594 113.039 159.667 112.562 158.846 111.953C158.025 111.37 157.363 110.602 156.886 109.675C156.383 108.748 156.145 107.609 156.145 106.232C156.145 104.749 156.516 103.531 157.231 102.525C157.946 101.518 158.873 100.724 159.959 100.115C161.071 99.5057 162.289 99.0819 163.64 98.8171C164.99 98.5788 166.288 98.4464 167.506 98.4464C168.91 98.4464 170.26 98.6053 171.532 98.8966C172.803 99.1879 173.968 99.6646 175.001 100.353C176.034 101.015 176.881 101.889 177.57 102.948C178.258 104.008 178.682 105.305 178.867 106.815H172.617C172.326 105.385 171.691 104.405 170.658 103.928C169.625 103.425 168.433 103.187 167.109 103.187C166.685 103.187 166.182 103.213 165.599 103.293C165.017 103.372 164.487 103.505 163.957 103.69C163.454 103.875 163.031 104.167 162.66 104.537C162.316 104.908 162.13 105.385 162.13 105.994C162.13 106.736 162.395 107.318 162.898 107.768C163.401 108.219 164.063 108.589 164.884 108.907C165.705 109.198 166.632 109.463 167.692 109.675C168.751 109.887 169.837 110.125 170.949 110.364C172.035 110.602 173.094 110.92 174.153 111.264C175.213 111.608 176.14 112.085 176.961 112.694C177.782 113.303 178.444 114.045 178.947 114.945C179.45 115.846 179.715 116.984 179.715 118.309C179.715 119.924 179.344 121.275 178.603 122.414C177.861 123.526 176.908 124.453 175.742 125.141C174.577 125.83 173.253 126.359 171.823 126.677C170.393 126.995 168.963 127.154 167.559 127.154C165.838 127.154 164.249 126.969 162.792 126.571C161.336 126.174 160.064 125.591 159.005 124.823C157.946 124.029 157.098 123.049 156.489 121.884C155.88 120.719 155.562 119.315 155.509 117.7H161.548V117.647ZM181.304 99.1879H185.832V91.0311H191.818V99.1879H197.22V103.664H191.818V118.176C191.818 118.812 191.844 119.341 191.897 119.818C191.95 120.268 192.082 120.666 192.268 120.983C192.453 121.301 192.745 121.54 193.142 121.698C193.539 121.857 194.042 121.937 194.731 121.937C195.154 121.937 195.578 121.937 196.002 121.91C196.426 121.884 196.849 121.831 197.273 121.725V126.359C196.611 126.439 195.949 126.492 195.34 126.571C194.704 126.651 194.069 126.677 193.407 126.677C191.818 126.677 190.546 126.518 189.593 126.227C188.64 125.936 187.872 125.486 187.342 124.903C186.786 124.32 186.442 123.605 186.23 122.731C186.044 121.857 185.912 120.851 185.885 119.739V103.716H181.357V99.1879H181.304ZM201.457 99.1879H207.125V102.869H207.231C208.078 101.28 209.243 100.168 210.753 99.4792C212.263 98.7906 213.878 98.4464 215.652 98.4464C217.798 98.4464 219.651 98.8171 221.24 99.5851C222.829 100.327 224.153 101.359 225.213 102.684C226.272 104.008 227.04 105.544 227.57 107.292C228.099 109.04 228.364 110.92 228.364 112.906C228.364 114.733 228.126 116.508 227.649 118.203C227.173 119.924 226.457 121.434 225.504 122.758C224.551 124.082 223.332 125.115 221.849 125.909C220.366 126.704 218.645 127.101 216.632 127.101C215.758 127.101 214.884 127.022 214.01 126.863C213.136 126.704 212.289 126.439 211.495 126.095C210.7 125.75 209.932 125.3 209.27 124.744C208.581 124.188 208.025 123.552 207.549 122.837H207.443V136.397H201.457V99.1879ZM222.379 112.8C222.379 111.582 222.22 110.39 221.902 109.225C221.585 108.06 221.108 107.053 220.472 106.153C219.837 105.252 219.042 104.537 218.115 104.008C217.162 103.478 216.076 103.187 214.858 103.187C212.342 103.187 210.435 104.061 209.164 105.809C207.893 107.557 207.257 109.887 207.257 112.8C207.257 114.177 207.416 115.448 207.76 116.614C208.105 117.779 208.581 118.785 209.27 119.633C209.932 120.48 210.727 121.142 211.653 121.619C212.58 122.122 213.666 122.361 214.884 122.361C216.262 122.361 217.4 122.069 218.354 121.513C219.307 120.957 220.075 120.215 220.684 119.341C221.293 118.441 221.743 117.435 222.008 116.296C222.247 115.157 222.379 113.992 222.379 112.8ZM232.946 88.833H238.931V94.5004H232.946V88.833ZM232.946 99.1879H238.931V126.359H232.946V99.1879ZM244.281 88.833H250.266V126.359H244.281V88.833ZM268.618 127.101C266.447 127.101 264.514 126.73 262.819 126.015C261.124 125.3 259.694 124.294 258.502 123.049C257.337 121.778 256.436 120.268 255.827 118.521C255.218 116.773 254.9 114.839 254.9 112.747C254.9 110.682 255.218 108.775 255.827 107.027C256.436 105.279 257.337 103.769 258.502 102.498C259.667 101.227 261.124 100.247 262.819 99.5322C264.514 98.8171 266.447 98.4464 268.618 98.4464C270.79 98.4464 272.723 98.8171 274.418 99.5322C276.113 100.247 277.543 101.254 278.735 102.498C279.9 103.769 280.801 105.279 281.41 107.027C282.019 108.775 282.337 110.682 282.337 112.747C282.337 114.839 282.019 116.773 281.41 118.521C280.801 120.268 279.9 121.778 278.735 123.049C277.57 124.32 276.113 125.3 274.418 126.015C272.723 126.73 270.79 127.101 268.618 127.101ZM268.618 122.361C269.943 122.361 271.108 122.069 272.088 121.513C273.068 120.957 273.862 120.215 274.498 119.315C275.133 118.415 275.584 117.382 275.901 116.243C276.193 115.104 276.352 113.939 276.352 112.747C276.352 111.582 276.193 110.443 275.901 109.278C275.61 108.113 275.133 107.106 274.498 106.206C273.862 105.305 273.068 104.59 272.088 104.034C271.108 103.478 269.943 103.187 268.618 103.187C267.294 103.187 266.129 103.478 265.149 104.034C264.169 104.59 263.375 105.332 262.739 106.206C262.104 107.106 261.653 108.113 261.336 109.278C261.044 110.443 260.885 111.582 260.885 112.747C260.885 113.939 261.044 115.104 261.336 116.243C261.627 117.382 262.104 118.415 262.739 119.315C263.375 120.215 264.169 120.957 265.149 121.513C266.129 122.096 267.294 122.361 268.618 122.361ZM284.085 99.1879H288.613V91.0311H294.598V99.1879H300.001V103.664H294.598V118.176C294.598 118.812 294.625 119.341 294.678 119.818C294.731 120.268 294.863 120.666 295.049 120.983C295.234 121.301 295.525 121.54 295.923 121.698C296.32 121.857 296.823 121.937 297.512 121.937C297.935 121.937 298.359 121.937 298.783 121.91C299.206 121.884 299.63 121.831 300.054 121.725V126.359C299.392 126.439 298.73 126.492 298.121 126.571C297.485 126.651 296.849 126.677 296.187 126.677C294.598 126.677 293.327 126.518 292.374 126.227C291.42 125.936 290.652 125.486 290.123 124.903C289.567 124.32 289.222 123.605 289.01 122.731C288.825 121.857 288.693 120.851 288.666 119.739V103.716H284.138V99.1879H284.085Z" fill="#191919"/>
<path d="M71.8485 88.833H44.4121L35.9375 62.7207L27.4364 88.833L0 88.8065L22.2193 104.961L13.7182 131.047L35.9375 114.919L58.1303 131.047L49.6557 104.961L71.8485 88.833Z" fill="#00B67A"/>
<path d="M51.5605 110.867L49.6538 104.961L35.9355 114.919L51.5605 110.867Z" fill="#005128"/>
</g>
<defs>
<clipPath id="clip0_3646_2486">
<rect width="300" height="73.6758" fill="white" transform="translate(0 62.7207)"/>
</clipPath>
</defs>
</svg>
