<svg width="300" height="200" viewBox="0 0 300 200" fill="none" xmlns="http://www.w3.org/2000/svg">
<path d="M21.5524 126.211C9.87046 126.211 2 120.618 2 110.718V109.381H13.4839V110.371C13.4839 114.529 16.1074 117.054 21.6019 117.054C26.5519 117.054 29.8189 115.024 29.8189 111.213C29.8189 109.035 28.9279 107.5 26.5024 106.857L14.3254 103.788C6.75198 101.907 2.8415 98.5408 2.8415 90.5218C2.8415 80.7704 9.72196 75.1769 21.2554 75.1769C32.1949 75.1769 39.1248 81.1169 39.1248 90.1258V91.3138H28.0864V90.4723C28.0864 87.1558 26.2549 84.4334 21.2554 84.4334C17.0974 84.4334 14.4244 85.9183 14.4244 89.4328C14.4244 91.7593 15.6124 92.9473 17.5429 93.4423L30.4624 96.9568C38.2338 99.0358 41.4018 103.392 41.4018 110.223C41.4513 119.974 32.8384 126.211 21.5524 126.211ZM46.9953 125.221V74.0879H58.6772V92.4523C60.3602 89.6308 64.1222 87.7003 68.3297 87.7003C76.6951 87.7003 81.1501 93.0958 81.1501 101.56V125.271H69.4682V103.392C69.4682 100.026 67.7357 97.9468 64.1717 97.9468C61.2017 97.9468 58.6772 99.3328 58.6772 103.54V125.271H46.9953V125.221ZM103.97 97.0063C99.5145 97.0063 97.584 100.075 97.584 103.788V109.975C97.584 113.688 99.5145 116.757 103.97 116.757C108.424 116.757 110.355 113.688 110.355 109.975V103.788C110.355 100.075 108.424 97.0063 103.97 97.0063ZM121.69 109.332C121.69 118.984 115.305 126.063 103.97 126.063C92.6341 126.063 86.2486 118.984 86.2486 109.332V104.431C86.2486 94.7788 92.6341 87.6508 103.97 87.6508C115.305 87.6508 121.69 94.7293 121.69 104.431V109.332ZM148.668 99.7783H147.133C141.688 99.7783 138.768 102.006 138.768 108.391V125.221H127.086V88.4923H138.124V94.9273C139.213 89.4823 142.876 88.1953 148.074 88.1953H148.618V99.7783H148.668ZM169.755 78.6419V88.5418H176.784V97.6498H169.755V113.292C169.755 114.975 170.596 115.767 172.378 115.767H176.19V125.32H168.517C161.538 125.32 158.073 121.162 158.073 114.43V97.6993H153.321V88.5913H158.073V78.6914H169.755V78.6419Z" fill="black"/>
<path d="M195.891 76.168V115.223H217.374V125.222H183.912V76.168H195.891ZM222.967 125.222H234.649V88.4934H222.967V125.222ZM228.808 73C232.719 73 235.293 75.376 235.293 79.0885C235.293 82.8009 232.719 85.1769 228.808 85.1769C224.898 85.1769 222.324 82.8009 222.324 79.0885C222.324 75.376 224.898 73 228.808 73ZM256.479 126.064C246.826 126.064 240.391 121.708 240.391 114.283V113.491H250.687V113.986C250.687 116.56 253.063 117.896 256.528 117.896C259.647 117.896 262.023 116.758 262.023 114.679C262.023 113.342 261.379 112.55 259.597 112.154L249.499 109.828C243.856 108.59 240.936 105.125 240.936 99.9279C240.936 92.0079 247.173 87.6024 256.033 87.6024C264.646 87.6024 270.834 92.1069 270.834 99.4329V100.076H260.736V99.4329C260.736 97.2054 259.399 95.7204 256.132 95.7204C253.162 95.7204 251.727 96.7104 251.727 98.7399C251.727 100.126 252.42 100.868 254.004 101.215L264.646 103.789C269.596 104.977 272.665 108.145 272.665 113.194C272.715 120.619 266.181 126.064 256.479 126.064ZM291.97 78.643V88.5429H298.999V97.6509H291.97V113.293C291.97 114.976 292.812 115.768 294.594 115.768H298.405V125.321H290.683C283.704 125.321 280.239 121.163 280.239 114.431V97.7004H275.487V88.5924H280.239V78.6925H291.97V78.643Z" fill="#0064D1"/>
</svg>
