<svg width="300" height="200" viewBox="0 0 300 200" fill="none" xmlns="http://www.w3.org/2000/svg">
<path d="M71.3401 127.824V149.452H64.4785V96.0537H82.6763C87.3003 96.0537 91.2274 97.5957 94.4595 100.678C97.7415 103.761 99.3819 107.515 99.3819 111.939C99.3819 116.464 97.7415 120.243 94.4595 123.276C91.2772 126.309 87.3494 127.825 82.6763 127.825L71.3401 127.824ZM71.3401 102.616V121.261H82.8251C85.559 121.261 87.8218 120.341 89.6123 118.501C91.4506 116.662 92.3714 114.473 92.3714 111.938C92.3714 109.453 91.4513 107.29 89.6123 105.45C87.8225 103.561 85.559 102.616 82.8251 102.616H71.3401Z" fill="#777677"/>
<path d="M117.726 111.72C122.798 111.72 126.8 113.075 129.734 115.784C132.667 118.494 134.134 122.211 134.134 126.933V149.457H127.57V144.385H127.272C124.438 148.562 120.659 150.65 115.936 150.65C111.909 150.65 108.54 149.457 105.83 147.07C103.12 144.684 101.766 141.7 101.766 138.12C101.766 134.343 103.194 131.333 106.054 129.096C108.913 126.859 112.729 125.74 117.503 125.74C121.579 125.74 124.935 126.486 127.57 127.978V126.411C127.57 124.025 126.626 121.999 124.737 120.333C122.847 118.668 120.634 117.835 118.099 117.835C114.27 117.835 111.238 119.451 109.001 122.682L102.959 118.879C106.29 114.106 111.212 111.72 117.726 111.72ZM108.851 138.27C108.851 140.06 109.608 141.552 111.126 142.744C112.642 143.938 114.419 144.534 116.458 144.534C119.341 144.534 121.914 143.466 124.177 141.327C126.439 139.19 127.57 136.679 127.57 133.794C125.431 132.105 122.448 131.258 118.62 131.258C115.835 131.258 113.511 131.93 111.647 133.272C109.783 134.615 108.851 136.282 108.851 138.27Z" fill="#777677"/>
<path d="M141.889 112.91H148.452V118.876H148.75C150.789 114.203 154.99 111.865 161.355 111.865L162.772 112.014V119.174L159.714 118.876C156.531 118.876 153.908 119.858 151.846 121.822C149.782 123.787 148.75 126.285 148.75 129.317V149.453H141.889V112.91ZM184.698 150.05C181.715 150.05 179.241 149.13 177.278 147.291C175.312 145.452 174.306 142.891 174.257 139.609V119.174H167.843V112.909H174.257V101.722H181.118V112.909H190.068V119.174H181.118V137.372C181.118 139.808 181.59 141.462 182.535 142.331C183.479 143.202 184.549 143.636 185.742 143.636C186.289 143.636 186.824 143.574 187.346 143.449C187.868 143.326 188.353 143.164 188.8 142.965L190.964 149.081C189.173 149.726 187.084 150.05 184.698 150.05Z" fill="#777677"/>
<path d="M196.995 112.913H203.559V117.984H203.856C204.901 116.194 206.504 114.703 208.667 113.51C210.83 112.316 213.079 111.72 215.416 111.72C219.891 111.72 223.334 113 225.745 115.56C228.156 118.122 229.363 121.764 229.363 126.487V149.457H222.501V126.933C222.352 120.967 219.343 117.983 213.477 117.983C210.743 117.983 208.455 119.09 206.616 121.303C204.776 123.516 203.856 126.163 203.856 129.245V149.457H196.994V112.913H196.995Z" fill="#777677"/>
<path d="M253.844 150.65C248.474 150.65 244.048 148.811 240.568 145.131C237.088 141.452 235.348 136.804 235.348 131.184C235.348 125.616 237.037 120.98 240.419 117.275C243.8 113.572 248.125 111.72 253.396 111.72C258.815 111.72 263.128 113.472 266.335 116.978C269.542 120.483 271.146 125.394 271.146 131.707L271.071 132.453H242.357C242.457 136.032 243.65 138.916 245.938 141.103C248.224 143.292 250.959 144.385 254.141 144.385C258.516 144.385 261.947 142.198 264.434 137.822L270.549 140.806C268.909 143.889 266.634 146.3 263.726 148.039C260.816 149.779 257.522 150.65 253.844 150.65ZM242.88 126.784H263.837C263.638 124.248 262.607 122.149 260.742 120.483C258.877 118.817 256.379 117.984 253.246 117.984C250.661 117.984 248.436 118.781 246.572 120.37C244.707 121.963 243.477 124.1 242.88 126.784Z" fill="#777677"/>
<path d="M284.262 149.451H277.4V112.907H283.964V118.873H284.262C284.958 116.933 286.387 115.282 288.551 113.913C290.714 112.547 292.839 111.862 294.927 111.862C296.916 111.862 298.606 112.161 299.998 112.757L297.91 119.394C297.064 119.047 295.722 118.872 293.883 118.872C291.297 118.872 289.047 119.916 287.133 122.004C285.219 124.093 284.262 126.529 284.262 129.313V149.451Z" fill="#777677"/>
<path d="M80.0379 64.8516V69.5095H91.1847C90.8246 72.4493 89.6042 74.7368 87.5247 76.3724C85.4997 77.9815 83.0043 78.7848 80.0372 78.7848C76.5991 78.7848 73.7011 77.5783 71.3446 75.1659C68.9874 72.7822 67.8095 69.8563 67.8095 66.3903C67.8095 62.9249 68.9874 59.9997 71.3446 57.6146C73.7011 55.2023 76.5991 53.9958 80.0372 53.9958C83.2534 53.9958 86.0544 55.1053 88.4395 57.3236L91.7248 54.0376C88.4249 50.9051 84.5297 49.3379 80.0372 49.3379C76.9871 49.3379 74.1031 50.1145 71.3858 51.6672C68.6958 53.1926 66.5744 55.2853 65.0225 57.9481C63.4964 60.5545 62.7344 63.3687 62.7344 66.3909C62.7344 69.4417 63.4964 72.2699 65.0225 74.8763C66.5472 77.5105 68.6685 79.5906 71.3858 81.1147C74.1031 82.668 76.9871 83.444 80.0372 83.444C84.64 83.444 88.4528 82.0023 91.4757 79.1183C94.4707 76.2622 95.9675 72.4779 95.9675 67.7629C95.9675 66.654 95.8844 65.6834 95.7184 64.8516H80.0379Z" fill="#487CBE"/>
<path d="M108.657 61.4814C105.523 61.4814 102.903 62.5358 100.796 64.6425C98.6885 66.722 97.6348 69.329 97.6348 72.4621C97.6348 75.5402 98.7017 78.1465 100.837 80.2818C102.944 82.3898 105.551 83.4435 108.657 83.4435C111.762 83.4435 114.369 82.3898 116.477 80.2818C118.612 78.1472 119.679 75.5402 119.679 72.4621C119.679 69.3296 118.612 66.7227 116.477 64.6425C114.369 62.5358 111.763 61.4814 108.657 61.4814ZM113.025 77.2038C111.832 78.4793 110.377 79.1171 108.658 79.1171C106.911 79.1171 105.441 78.4793 104.249 77.2038C103.056 75.9288 102.46 74.3483 102.46 72.4621C102.46 70.5215 103.056 68.941 104.249 67.7205C105.441 66.4456 106.911 65.8078 108.658 65.8078C110.405 65.8078 111.874 66.4463 113.067 67.7205C114.259 68.941 114.855 70.5215 114.855 72.4621C114.855 74.3197 114.245 75.9009 113.025 77.2038Z" fill="#EE372C"/>
<path d="M174.918 50.499H170.094V82.7754H174.918V50.499Z" fill="#00AB4E"/>
<path d="M132.69 61.4814C129.557 61.4814 126.936 62.5358 124.829 64.6425C122.721 66.722 121.668 69.329 121.668 72.4621C121.668 75.5402 122.735 78.1465 124.87 80.2818C126.978 82.3898 129.584 83.4435 132.69 83.4435C135.795 83.4435 138.402 82.3898 140.51 80.2818C142.645 78.1472 143.712 75.5402 143.712 72.4621C143.712 69.3296 142.645 66.7227 140.51 64.6425C138.402 62.5358 135.796 61.4814 132.69 61.4814ZM137.057 77.2038C135.865 78.4793 134.409 79.1171 132.691 79.1171C130.944 79.1171 129.474 78.4793 128.282 77.2038C127.089 75.9288 126.493 74.3483 126.493 72.4621C126.493 70.5215 127.089 68.941 128.282 67.7205C129.474 66.4456 130.944 65.8078 132.691 65.8078C134.437 65.8078 135.907 66.4463 137.099 67.7205C138.292 68.941 138.888 70.5215 138.888 72.4621C138.888 74.3197 138.277 75.9009 137.057 77.2038Z" fill="#FCB514"/>
<path d="M188.134 79.1171C185.722 79.1171 183.946 78.0076 182.81 75.7893L197.492 69.717L196.993 68.4693C196.605 67.4435 196.099 66.5008 195.475 65.6404C194.851 64.7814 194.137 64.0393 193.333 63.4154C192.528 62.7909 191.641 62.3132 190.671 61.9804C189.701 61.6475 188.675 61.4814 187.593 61.4814C184.654 61.4814 182.187 62.5212 180.189 64.6007C178.22 66.7087 177.236 69.329 177.236 72.4615C177.236 75.5674 178.277 78.1744 180.356 80.2811C182.435 82.3892 185.028 83.4429 188.134 83.4429C192.016 83.4429 195.065 81.8205 197.284 78.5763L193.541 76.081C192.182 78.1053 190.38 79.1171 188.134 79.1171ZM183.683 67.5544C184.903 66.3347 186.262 65.7248 187.76 65.7248C188.702 65.7248 189.548 65.9394 190.297 66.3692C191.045 66.7991 191.558 67.3611 191.836 68.0534L182.02 72.1293C181.964 70.2717 182.519 68.7463 183.683 67.5544Z" fill="#EE372C"/>
<path d="M162.182 63.935H162.016C160.629 62.2993 158.703 61.4814 156.235 61.4814C153.406 61.4814 150.938 62.5624 148.831 64.7256C146.751 66.8881 145.711 69.4818 145.711 72.5033C145.711 75.4983 146.751 78.0767 148.831 80.2399C150.965 82.3752 153.433 83.4429 156.235 83.4429C158.702 83.4429 160.629 82.6111 162.016 80.9475H162.182V82.0703C162.182 86.673 160.227 88.9744 156.318 88.9744C155.07 88.9744 153.96 88.6143 152.99 87.8935C152.019 87.172 151.284 86.2299 150.785 85.0646L146.585 86.8112C147 87.7819 147.527 88.6621 148.165 89.4527C148.803 90.2433 149.544 90.9223 150.391 91.491C151.236 92.0591 152.158 92.5022 153.157 92.8218C154.154 93.14 155.208 93.2994 156.318 93.2994C159.589 93.2994 162.147 92.3075 163.991 90.3257C165.835 88.3432 166.757 85.5217 166.757 81.8617V62.1465H162.181V63.935H162.182ZM160.809 77.245C159.672 78.4926 158.286 79.1171 156.65 79.1171C154.93 79.1171 153.475 78.4793 152.284 77.2038C151.119 75.9288 150.536 74.3616 150.536 72.504C150.536 70.6192 151.132 69.0386 152.325 67.7624C153.545 66.4596 154.988 65.8078 156.651 65.8078C158.314 65.8078 159.701 66.4463 160.81 67.7205C161.947 69.0247 162.516 70.6185 162.516 72.5033C162.515 74.3616 161.946 75.9421 160.809 77.245Z" fill="#487CBE"/>
<path d="M36.0426 34H1.04297V167H36.0426V34Z" fill="#487CBE"/>
</svg>
