<svg width="300" height="200" viewBox="0 0 300 200" fill="none" xmlns="http://www.w3.org/2000/svg">
<path d="M299.757 107.576C299.757 103.47 297.395 101.94 291.662 100.489C288.213 99.6445 287.296 98.9583 287.296 97.7498C287.296 96.5413 288.377 95.7397 290.624 95.7397C292.907 95.7397 295.512 96.5048 297.717 97.6708L298.439 93.2862C296.235 92.3206 293.551 91.7559 290.666 91.7559C285.498 91.7559 282.449 94.4097 282.449 98.1142C282.449 102.098 284.696 103.628 290.107 104.958C293.872 105.845 294.917 106.446 294.917 108.055C294.917 109.507 293.472 110.387 290.951 110.387C288.103 110.387 285.097 109.343 282.735 107.849L282.055 112.276C284.18 113.363 287.508 114.371 290.751 114.371C296.593 114.377 299.757 111.839 299.757 107.576Z" fill="#116BF2"/>
<path d="M279.356 113.922V92.0596H274.042V106.908C272.318 108.59 270.459 109.713 268.577 109.713C266.415 109.713 265.54 108.39 265.54 106.464V92.0596H260.227V107.867C260.227 111.918 262.474 114.359 266.761 114.359C269.767 114.359 272.22 112.805 274.346 110.879L275.105 113.916H279.356V113.922Z" fill="#116BF2"/>
<path d="M257.085 113.922V92.0596H251.832V113.922H257.085Z" fill="#116BF2"/>
<path d="M254.476 82.502C256.237 82.502 257.615 83.7833 257.615 85.5505C257.615 87.3117 256.237 88.5991 254.476 88.5991C252.714 88.5991 251.281 87.3177 251.281 85.5505C251.281 83.7833 252.714 82.502 254.476 82.502Z" fill="#116BF2"/>
<path d="M243.441 106.628C241.88 108.511 240.192 109.713 238.03 109.713C235.382 109.713 233.42 107.666 233.42 103.379C233.42 98.5693 235.704 96.2434 238.831 96.2434C240.835 96.2434 241.995 96.5652 243.441 97.2029V106.628ZM248.694 113.922V81.4316L243.441 82.3426V92.879C242.038 92.3993 240.277 92.0349 238.109 92.0349C232.819 92.0349 228.131 95.6422 228.131 103.701C228.131 110.994 231.981 114.365 236.748 114.365C239.912 114.365 242.117 112.762 243.762 110.915L244.218 113.922H248.694Z" fill="#116BF2"/>
<path d="M220.701 107.951C219.019 109.476 217.094 110.399 215.09 110.399C213.244 110.399 212.126 109.397 212.126 107.836C212.126 105.753 213.772 103.87 220.701 103.105V107.951ZM225.912 113.921V99.0486C225.912 93.917 223.106 91.834 217.337 91.834C213.772 91.834 211.082 92.5567 208.44 93.5951L209.084 97.7611C211.531 96.7591 214.051 96.0364 216.699 96.0364C219.226 96.0364 220.707 96.917 220.707 99.2854V99.9656C211.41 100.846 206.922 103.093 206.922 108.34C206.922 112.105 209.527 114.352 213.414 114.352C216.778 114.352 219.147 112.907 221.029 111.103L221.509 113.909H225.912V113.921Z" fill="#116BF2"/>
<path d="M206.054 113.162L197.68 101.697C201.488 100.494 203.971 97.8282 203.971 93.5772C203.971 87.9658 199.921 84.7715 193.228 84.7715H184.01V113.921H189.463V102.686H192.111L200.285 114.201L206.054 113.162ZM198.518 93.8808C198.518 96.9294 196.234 98.5873 192.506 98.5873H189.421V89.3261H192.828C196.556 89.3261 198.518 90.9537 198.518 93.8808Z" fill="#116BF2"/>
<path d="M181.265 113.92L180.621 109.554C180.099 109.675 179.419 109.712 178.739 109.712C176.577 109.712 175.733 108.752 175.733 106.985V96.3089H181.271L180.36 92.0579H175.733V84.4668L170.565 85.3838V92.0579H167.006V96.3089H170.565V107.866C170.565 112.754 173.449 114.279 177.779 114.279C179.382 114.279 180.427 114.121 181.265 113.92Z" fill="#116BF2"/>
<path d="M165.894 107.576C165.894 103.47 163.532 101.94 157.799 100.489C154.35 99.6445 153.433 98.9583 153.433 97.7498C153.433 96.5413 154.514 95.7397 156.761 95.7397C159.044 95.7397 161.649 96.5048 163.854 97.6708L164.576 93.2862C162.372 92.3206 159.688 91.7559 156.803 91.7559C151.635 91.7559 148.587 94.4097 148.587 98.1142C148.587 102.098 150.834 103.628 156.244 104.958C160.01 105.845 161.054 106.446 161.054 108.055C161.054 109.507 159.609 110.387 157.089 110.387C154.24 110.387 151.313 109.331 148.951 107.843L148.18 112.282C150.305 113.369 153.645 114.377 156.894 114.377C162.749 114.377 165.894 111.839 165.894 107.576Z" fill="#116BF2"/>
<path d="M145.749 113.922V92.0596H140.435V106.908C138.71 108.59 136.852 109.713 134.969 109.713C132.807 109.713 131.933 108.39 131.933 106.464V92.0596H126.619V107.867C126.619 111.918 128.866 114.359 133.154 114.359C136.16 114.359 138.613 112.805 140.739 110.879L141.498 113.916H145.749V113.922Z" fill="#116BF2"/>
<path d="M124.193 96.9178L122.979 91.7559C119.639 92.3631 117.623 94.1243 116.104 96.6081L115.084 92.0595H111.137V113.922H116.299V101.472C117.902 99.1101 120.629 97.1182 124.193 96.9178Z" fill="#116BF2"/>
<path d="M114.475 89.6298L113.261 84.7715H87.4512V89.6298H97.1678V113.921H102.633V89.6298H114.475Z" fill="#116BF2"/>
<path d="M24.293 84.2393H33.4752C33.8152 84.5793 34.0096 85.047 34.0096 85.5267V125.359C34.0096 125.899 33.3537 126.172 32.9711 125.79L24.8274 117.64C24.4873 117.3 24.293 116.838 24.293 116.353V84.2393Z" fill="url(#paint0_linear_3646_2487)"/>
<path d="M48.5838 84.2393V104.207V116.353C48.5838 116.838 48.3895 117.3 48.0494 117.64L39.9056 125.784C39.5231 126.166 38.8793 125.899 38.8672 125.365V85.5146C38.8733 85.0409 39.0615 84.5854 39.3955 84.2514L39.4016 84.2453H48.5838V84.2393Z" fill="url(#paint1_linear_3646_2487)"/>
<path d="M63.7662 107.242L55.8714 98.1328H54.9058C54.748 98.1328 54.5961 98.1935 54.4807 98.3089C54.4807 98.3089 54.4807 98.3089 54.4747 98.315L48.584 104.206L67.4828 123.104C67.4828 123.104 67.4888 123.111 67.4949 123.111C67.835 123.445 68.2965 123.633 68.7763 123.633H78.6994C79.2399 123.633 79.5131 122.977 79.1305 122.594L63.7662 107.242Z" fill="url(#paint2_linear_3646_2487)"/>
<path d="M63.1582 84.166V98.7409L72.3404 98.668C72.6805 98.328 72.8748 97.8603 72.8748 97.3806V85.5263C72.8748 85.0405 72.6805 84.579 72.3404 84.2389L63.1582 84.166Z" fill="url(#paint3_linear_3646_2487)"/>
<path d="M24.8274 75.5911C24.4873 75.251 24.0197 75.0566 23.54 75.0566H0.857771C0.317285 75.0566 0.0440054 75.7125 0.426596 76.0951L8.57032 84.2388C8.9104 84.5789 9.37801 84.7732 9.85777 84.7732H24.293H32.795C33.463 84.7732 34.0096 85.3198 34.0096 85.9878V85.5263C34.0096 85.0404 33.8153 84.5789 33.4752 84.2388L24.8274 75.5911Z" fill="url(#paint4_linear_3646_2487)"/>
<path d="M48.0494 75.5911C48.3895 75.251 48.8571 75.0566 49.3368 75.0566H62.3996C62.8854 75.0566 63.3469 75.251 63.687 75.5911L72.3348 84.2388C72.6749 84.5789 72.8692 85.0465 72.8692 85.5263V85.9878C72.8692 85.3198 72.3226 84.7732 71.6546 84.7732H63.1526H48.5838H40.0818C39.4137 84.7732 38.8672 85.3198 38.8672 85.9878V85.5263C38.8672 85.0404 39.0615 84.5789 39.4016 84.2388L48.0494 75.5911Z" fill="url(#paint5_linear_3646_2487)"/>
<path d="M72.8763 96.918C72.8763 97.586 72.3297 98.1325 71.6617 98.1325H64.3742H55.3925C55.1192 98.1325 54.9856 98.4605 55.1799 98.6487L63.767 107.242L72.3419 98.667C72.6819 98.3269 72.8763 97.8593 72.8763 97.3795V96.918Z" fill="url(#paint6_linear_3646_2487)"/>
<defs>
<linearGradient id="paint0_linear_3646_2487" x1="29.1517" y1="126.069" x2="29.1517" y2="75.0565" gradientUnits="userSpaceOnUse">
<stop offset="0.7144" stop-color="#116BF2"/>
<stop offset="1" stop-color="#1E50E5"/>
</linearGradient>
<linearGradient id="paint1_linear_3646_2487" x1="43.7259" y1="126.069" x2="43.7259" y2="75.0565" gradientUnits="userSpaceOnUse">
<stop offset="0.7144" stop-color="#116BF2"/>
<stop offset="1" stop-color="#1E50E5"/>
</linearGradient>
<linearGradient id="paint2_linear_3646_2487" x1="52.0772" y1="101.016" x2="75.7614" y2="124.7" gradientUnits="userSpaceOnUse">
<stop offset="0.4076" stop-color="#116BF2"/>
<stop offset="1" stop-color="#185DEC"/>
</linearGradient>
<linearGradient id="paint3_linear_3646_2487" x1="68.0164" y1="107.309" x2="68.0164" y2="74.9538" gradientUnits="userSpaceOnUse">
<stop offset="0.578" stop-color="#116BF2"/>
<stop offset="1" stop-color="#1E50E5"/>
</linearGradient>
<linearGradient id="paint4_linear_3646_2487" x1="23.3811" y1="74.4494" x2="13.6645" y2="84.166" gradientUnits="userSpaceOnUse">
<stop offset="0.0331" stop-color="#59C5FF"/>
<stop offset="0.989" stop-color="#21B1FF"/>
</linearGradient>
<linearGradient id="paint5_linear_3646_2487" x1="47.0661" y1="76.5753" x2="56.7827" y2="86.2919" gradientUnits="userSpaceOnUse">
<stop offset="0.0387" stop-color="#59C5FF"/>
<stop offset="0.989" stop-color="#21B1FF"/>
</linearGradient>
<linearGradient id="paint6_linear_3646_2487" x1="68.7692" y1="102.525" x2="61.4818" y2="95.238" gradientUnits="userSpaceOnUse">
<stop offset="0.0387" stop-color="#57C4FF"/>
<stop offset="0.989" stop-color="#21B1FF"/>
</linearGradient>
</defs>
</svg>
