<svg width="300" height="200" viewBox="0 0 300 200" fill="none" xmlns="http://www.w3.org/2000/svg">
<g clip-path="url(#clip0_3646_2488)">
<path d="M175.788 127.404C180.553 135.673 185.265 143.848 189.973 152.014C169.124 167.977 136.685 169.906 112.672 151.524C85.0375 130.353 80.4956 94.2304 95.2906 68.2275C112.307 38.3187 144.15 31.7042 164.653 36.5544C164.098 37.759 151.819 63.2339 151.819 63.2339C151.819 63.2339 150.848 63.2977 150.299 63.3083C144.239 63.5651 139.725 64.9752 134.887 67.4765C129.58 70.2461 125.031 74.2736 121.639 79.2069C118.247 84.1403 116.116 89.8293 115.43 95.7768C114.715 101.808 115.549 107.923 117.853 113.542C119.802 118.293 122.558 122.513 126.253 126.075C131.922 131.546 138.668 134.932 146.487 136.054C153.891 137.117 161.012 136.064 167.685 132.711C170.188 131.455 172.318 130.068 174.806 128.166C175.124 127.96 175.405 127.7 175.788 127.404Z" fill="#FF492C"/>
<path d="M175.835 54.8831C174.625 53.6927 173.504 52.5944 172.388 51.489C171.722 50.8301 171.081 50.1445 170.399 49.5015C170.154 49.2694 169.867 48.9524 169.867 48.9524C169.867 48.9524 170.099 48.4599 170.198 48.258C171.504 45.638 173.55 43.7231 175.977 42.1997C178.66 40.5023 181.787 39.6386 184.962 39.7179C189.023 39.7976 192.8 40.8091 195.987 43.5336C198.339 45.5441 199.546 48.095 199.758 51.1401C200.113 56.2772 197.987 60.2116 193.766 62.9573C191.286 64.5728 188.611 65.8217 185.929 67.3008C184.45 68.1175 183.185 68.8349 181.739 70.3123C180.467 71.7949 180.405 73.1926 180.405 73.1926L199.62 73.1678V81.7256H169.961C169.961 81.7256 169.961 81.141 169.961 80.8983C169.848 76.6929 170.338 72.7356 172.264 68.9164C174.035 65.4125 176.788 62.8475 180.095 60.8723C182.643 59.3506 185.325 58.0557 187.877 56.5412C189.452 55.6076 190.565 54.2383 190.556 52.2525C190.556 50.5484 189.316 49.0338 187.544 48.5609C183.367 47.4342 179.116 49.2322 176.905 53.055C176.583 53.613 176.253 54.1674 175.835 54.8831Z" fill="#FF492C"/>
<path d="M212.998 118.308L196.805 90.3438H164.762L148.465 118.596H180.744L196.673 146.427L212.998 118.308Z" fill="#FF492C"/>
</g>
<defs>
<clipPath id="clip0_3646_2488">
<rect width="126" height="129.538" fill="white" transform="translate(87 35.1123)"/>
</clipPath>
</defs>
</svg>
