<svg width="301" height="200" viewBox="0 0 301 200" fill="none" xmlns="http://www.w3.org/2000/svg">
<mask id="mask0_3646_2489" style="mask-type:luminance" maskUnits="userSpaceOnUse" x="0" y="42" width="300" height="116">
<path d="M299.245 42H0V158H299.245V42Z" fill="white"/>
</mask>
<g mask="url(#mask0_3646_2489)">
<path d="M240.257 109.185L245.121 108.064C245.306 108.002 245.429 108.002 245.613 107.94C248.384 107.192 250.108 104.328 249.431 101.526L249.369 101.464C249.185 100.841 248.938 100.156 248.569 99.6584C248.015 98.9734 247.337 98.4131 246.599 97.9149C245.675 97.4168 244.751 96.981 243.766 96.6074L238.471 94.6149C235.515 93.4941 232.498 92.4356 229.481 91.3771C227.511 90.6922 225.849 90.0695 224.432 89.5714C224.186 89.5091 223.878 89.3846 223.632 89.3224C221.908 88.762 220.676 88.5752 219.63 88.5752C218.952 88.5752 218.275 88.6997 217.598 88.9488C216.92 89.2601 216.305 89.6959 215.812 90.1941C215.566 90.4431 215.32 90.7545 215.135 91.0658C214.704 91.6884 214.396 92.4356 214.15 93.1205C213.164 96.047 212.672 99.1602 212.672 102.274C212.672 105.075 212.795 108.687 214.334 111.177C214.704 111.8 215.196 112.36 215.751 112.734C216.859 113.481 217.967 113.606 219.075 113.668C220.738 113.793 222.4 113.357 224.063 112.983L240.257 109.185ZM294.318 83.1581C292.963 80.3562 291.239 77.8033 289.084 75.5617C288.776 75.3127 288.53 75.0014 288.16 74.8146C287.853 74.5655 287.545 74.3787 287.237 74.1919C286.929 74.0051 286.56 73.8806 286.252 73.6938C285.574 73.4447 284.835 73.3202 284.097 73.3202C283.419 73.3825 282.742 73.5693 282.126 73.8806C281.203 74.3787 280.217 75.1259 278.863 76.3712C278.678 76.558 278.432 76.7448 278.247 76.9316C277.139 77.9901 275.907 79.2977 274.491 80.792C272.275 83.0958 270.058 85.3996 267.841 87.7035L263.901 91.813C263.162 92.5601 262.546 93.3696 261.93 94.2413C261.438 94.9885 261.068 95.7979 260.884 96.6696C260.76 97.3546 260.76 98.0395 260.945 98.6621L261.007 98.7244C261.622 101.589 264.393 103.394 267.226 102.834C267.41 102.772 267.595 102.772 267.718 102.709L288.653 97.7904C290.315 97.4168 291.978 97.0432 293.456 96.1715C294.441 95.6111 295.426 94.9885 296.042 93.8054C296.411 93.1828 296.596 92.4356 296.657 91.7507C296.965 88.9488 295.488 85.711 294.318 83.1581ZM256.82 92.062C258.359 90.1318 258.359 87.2676 258.482 84.9015C258.913 77.0561 259.406 69.2107 259.775 61.303C259.96 58.3766 260.268 55.3878 260.083 52.3991C259.898 49.9085 259.898 47.1066 258.359 45.0518C255.65 41.5027 249.8 41.814 245.86 42.3122C244.628 42.499 243.397 42.6857 242.227 42.9971C240.995 43.3084 239.826 43.6197 238.656 43.9933C234.838 45.2386 229.481 47.5424 228.558 51.9633C228.065 54.5161 229.235 57.069 230.22 59.3105C231.329 62.1125 232.929 64.6031 234.346 67.2182C238.04 74.1919 241.857 81.0411 245.675 87.8903C246.845 89.945 248.076 92.4979 250.231 93.5564C250.416 93.6186 250.539 93.6809 250.662 93.7432C251.648 94.1168 252.756 94.179 253.741 93.93L253.926 93.8677C254.849 93.6186 255.711 93.0583 256.389 92.3733C256.573 92.3111 256.697 92.1865 256.82 92.062ZM254.973 113.108C253.741 111.364 251.586 110.617 249.554 111.302C249.308 111.364 249.123 111.489 248.877 111.551C248.507 111.738 248.2 111.925 247.953 112.174C247.091 112.796 246.352 113.668 245.675 114.54C245.49 114.727 245.367 115.038 245.121 115.225L241.734 119.895C239.826 122.51 237.917 125.125 236.07 127.802C234.838 129.546 233.791 130.978 232.929 132.285C232.745 132.534 232.622 132.846 232.437 133.032C231.452 134.589 230.897 135.71 230.59 136.706C230.405 137.391 230.282 138.138 230.405 138.823C230.466 139.57 230.713 140.255 231.082 140.878C231.267 141.189 231.513 141.501 231.76 141.812C232.252 142.372 232.806 142.933 233.484 143.369C235.823 144.987 238.348 146.17 241.057 147.104C243.274 147.852 245.613 148.287 247.953 148.412C248.384 148.412 248.754 148.412 249.185 148.412C249.554 148.35 249.924 148.35 250.293 148.225C250.662 148.163 251.032 148.038 251.34 147.914C252.694 147.416 253.803 146.357 254.295 144.987C254.665 143.991 254.911 142.746 255.096 140.878C255.096 140.629 255.157 140.318 255.157 140.006C255.28 138.45 255.342 136.644 255.465 134.527C255.65 131.289 255.773 128.051 255.835 124.751L256.019 118.961C256.081 117.591 256.019 116.159 255.65 114.789C255.588 114.228 255.342 113.668 254.973 113.108ZM293.025 122.136C292.347 121.327 291.301 120.579 289.761 119.645C289.515 119.521 289.269 119.334 289.022 119.21C287.729 118.4 286.129 117.591 284.281 116.594C281.449 115.038 278.617 113.481 275.784 111.987L270.735 109.309C270.489 109.247 270.181 109.06 269.935 108.936C268.95 108.438 267.903 108.064 266.856 107.815C266.487 107.753 266.117 107.691 265.748 107.691C265.502 107.691 265.255 107.691 265.009 107.753C262.915 108.064 261.315 109.683 260.945 111.8C260.884 112.423 260.884 113.108 261.007 113.73C261.253 115.1 261.869 116.408 262.484 117.591L265.194 122.696C266.671 125.623 268.211 128.425 269.75 131.289C270.735 133.157 271.597 134.714 272.398 136.083C272.521 136.333 272.706 136.582 272.829 136.831C273.752 138.45 274.553 139.446 275.353 140.131C275.846 140.629 276.462 141.002 277.077 141.251C277.755 141.501 278.493 141.563 279.232 141.501C279.602 141.438 279.971 141.376 280.341 141.314C280.71 141.189 281.08 141.127 281.387 141.002C281.757 140.816 282.126 140.691 282.434 140.504C284.528 139.321 286.375 137.889 288.037 136.27C290.069 134.278 291.855 132.099 293.209 129.546C293.394 129.172 293.579 128.798 293.702 128.425C293.825 128.051 293.948 127.74 294.071 127.366C294.133 126.993 294.195 126.619 294.256 126.246C294.318 125.498 294.256 124.751 294.01 124.066C293.887 123.257 293.517 122.634 293.025 122.136Z" fill="#FF1A1A"/>
</g>
<path fill-rule="evenodd" clip-rule="evenodd" d="M119.143 72.4447C119.143 68.2107 122.529 64.7861 126.655 64.7861C130.719 64.7861 133.982 68.2107 134.167 72.507V132.219C134.167 136.453 130.78 139.878 126.655 139.878C122.529 139.878 119.143 136.453 119.143 132.219V72.4447ZM112.185 109.306C112.124 110.489 111.816 112.668 110.338 114.287C108.675 116.03 106.459 116.404 105.166 116.404C99.809 116.466 94.4521 116.466 89.0953 116.466C83.7384 116.466 78.3816 116.466 73.0247 116.528C73.5173 118.023 74.4409 120.264 76.5344 122.319C77.8274 123.564 79.0589 124.249 79.5514 124.561C80.1672 124.997 82.4454 126.18 85.1546 126.18C88.0485 126.18 90.6346 125.246 93.1591 123.938L93.3438 123.814C95.1294 122.88 96.915 121.946 98.8238 121.634C100.671 121.323 102.703 121.696 104.181 123.004C105.966 124.561 106.644 126.802 105.966 129.106C105.227 131.721 103.072 133.963 100.733 135.333C99.4395 136.08 98.0233 136.765 96.6072 137.263C92.9744 138.57 89.1568 139.193 85.3393 139.068C84.4157 139.068 83.4305 139.068 82.4454 138.944C81.3986 138.819 80.3519 138.633 79.3052 138.321C77.7043 137.948 76.1033 137.45 74.6256 136.702C73.1478 136.017 71.7317 135.208 70.3771 134.274C69.0225 133.278 67.791 132.219 66.6211 130.974C65.4512 129.791 64.466 128.421 63.5425 127.051C60.4022 122.195 58.9245 116.217 59.1708 110.364C59.4171 104.698 61.2643 98.9697 64.7123 94.3621C65.0818 93.8017 65.4512 93.3036 65.8822 92.8055C66.0669 92.6187 66.2517 92.4319 66.3748 92.1828C70.5618 87.0148 76.1649 85.3959 78.5047 84.711L78.6278 84.6487C83.3074 83.2789 88.2948 83.2789 92.9744 84.6487C94.0827 84.96 100.363 86.8903 105.227 92.1828C105.474 92.4319 106.089 93.1791 106.951 94.2998C109.045 97.164 110.584 100.402 111.446 103.826C111.877 105.383 112.185 107.126 112.185 109.306ZM77.8274 99.5301C75.5492 101.46 73.8867 104.075 73.271 107.002H98.7622C98.0849 104.075 96.484 101.398 94.1442 99.5301C91.8045 97.6621 88.9721 96.6036 85.955 96.6036C84.9083 96.6036 81.2755 96.7904 77.8274 99.5301ZM174.866 83.8393C168.155 83.8393 162.121 86.828 157.749 91.7469V91.6224C157.503 81.5977 142.541 81.9713 142.849 92.0583V149.093C142.849 153.265 146.173 156.69 150.36 156.69C154.486 156.69 157.811 153.327 157.811 149.093V131.285C162.121 136.142 168.155 139.255 174.866 139.255C188.228 139.255 199.126 126.989 199.126 111.672C199.126 96.2923 188.228 83.8393 174.866 83.8393ZM171.542 126.74C163.968 126.74 157.749 120.015 157.749 111.672C157.749 103.266 163.906 96.5414 171.542 96.5414C179.177 96.5414 185.334 103.266 185.334 111.672C185.334 120.078 179.177 126.74 171.542 126.74ZM48.0876 115.532L45.6247 121.012C44.5164 123.378 43.4081 125.806 42.3613 128.234C41.9919 128.982 41.684 129.729 41.3762 130.476C36.6966 140.999 31.155 153.514 19.0252 156.129C13.1757 157.437 4.30921 155.631 1.04584 150.089C-2.21753 144.423 2.64673 137.948 8.86561 139.442C9.85078 139.629 10.8359 140.127 11.8211 140.625C13.4836 141.435 15.0845 142.306 16.9317 141.933C18.5941 141.621 19.7025 140.376 20.9955 138.819C22.4117 137.076 23.4584 135.084 24.0126 132.904C23.951 132.842 23.951 132.78 23.951 132.717C23.8894 132.655 23.8894 132.593 23.8279 132.531C22.2885 129.666 20.9955 127.051 19.8872 124.934C19.1483 123.564 18.5326 122.319 17.9784 121.323L15.4539 116.466C13.6067 112.855 13.2989 112.294 12.4368 110.738C10.6512 107.251 8.74246 103.826 6.71055 100.464C4.5555 96.7904 2.33887 92.6809 4.12449 88.3224C5.54067 84.8355 9.3582 83.0298 12.8679 84.2129C16.6238 85.3336 18.2863 89.0073 19.8872 92.3696C20.1335 92.9923 20.4413 93.6149 20.7492 94.1753C23.2737 99.2188 25.7366 104.262 28.1995 109.306C28.3843 109.804 28.7537 110.489 29.1847 111.298C29.5541 112.045 29.9852 112.917 30.4162 113.851C30.6625 114.349 30.8472 114.785 31.0935 115.221C31.3398 115.719 31.5861 116.217 31.7092 116.591C32.8791 113.727 33.9874 110.862 35.1573 107.998C36.3272 105.134 37.4971 102.27 38.6054 99.4056C38.6054 99.2188 38.9132 98.6584 39.2827 97.7244C39.8984 96.3546 40.5141 94.9847 41.0683 93.6149C42.6076 89.879 44.3932 85.3959 48.4571 84.1506C51.4126 83.2789 54.5528 84.3997 56.3384 86.9525C57.262 88.1978 57.5699 89.6299 57.6314 91.062C57.693 94.2376 56.1537 97.5999 54.8607 100.464C54.5528 101.149 54.2449 101.834 53.9986 102.519L53.8139 102.892C53.4445 103.702 52.4593 105.881 50.7968 109.555C50.1811 110.862 49.627 112.17 49.0112 113.477C48.7649 114.1 48.3955 114.847 48.0876 115.532Z" fill="black"/>
</svg>
