<svg width="300" height="200" viewBox="0 0 300 200" fill="none" xmlns="http://www.w3.org/2000/svg">
<path d="M78 57H91.7998V142.199H78V57Z" fill="#17313B"/>
<path d="M139.801 115.199C139.801 128.399 129.002 129.599 125.402 129.599C117.002 129.599 115.802 121.799 115.802 117.599V84.5996H102.002V116.999C102.002 124.799 104.402 131.999 109.202 136.199C113.402 140.399 118.802 142.199 125.402 142.199C130.201 142.199 136.201 140.999 139.801 137.399V142.199H153.601V84.5996H139.801V115.199Z" fill="#17313B"/>
<path d="M180.597 63.5996H166.797V84.5993H156.598V97.7991H166.797V142.198H180.597V97.7991H190.797V84.5993H180.597V63.5996Z" fill="#17313B"/>
<path d="M233.993 124.798C230.993 127.198 226.793 128.998 222.593 128.998C212.993 128.998 206.393 121.798 206.393 112.198C206.393 102.598 212.993 95.9982 222.593 95.9982C226.793 95.9982 230.993 97.1982 233.993 100.198L235.793 101.998L245.393 92.9983L242.993 91.1983C237.593 86.3984 230.393 83.3984 222.593 83.3984C205.793 83.3984 193.193 95.9982 193.193 112.798C193.193 129.598 205.793 142.197 222.593 142.197C230.393 142.197 237.593 139.198 242.993 134.398L245.393 132.598L235.793 122.998L233.993 124.798Z" fill="#17313B"/>
<path d="M294.001 89.3995C289.801 85.1996 285.601 83.3996 279.002 83.3996C274.202 83.3996 269.402 84.5996 265.802 88.1995V57H252.002V142.199H265.802V110.399C265.802 97.1994 274.802 95.9994 278.402 95.9994C286.801 95.9994 286.201 103.799 286.201 107.999V141.599H300.001V108.599C300.001 100.799 298.201 93.5994 294.001 89.3995Z" fill="#17313B"/>
<path d="M221.996 122.401C227.298 122.401 231.596 118.103 231.596 112.801C231.596 107.499 227.298 103.201 221.996 103.201C216.694 103.201 212.396 107.499 212.396 112.801C212.396 118.103 216.694 122.401 221.996 122.401Z" fill="#EF4335"/>
<path d="M58.799 121.198C53.9991 125.998 46.7992 128.998 38.9994 128.998C23.9996 128.998 13.1998 116.998 13.1998 100.798C13.1998 84.5986 23.9996 72.5987 39.5994 72.5987C46.7992 72.5987 53.9991 75.5987 59.399 80.9986L61.199 82.7986L70.1989 73.7987L68.3989 71.9988C60.599 64.1989 50.3992 59.9989 39.5994 59.9989C16.7997 59.399 0 77.3987 0 100.798C0 124.198 16.7997 142.198 38.9994 142.198C49.7992 142.198 60.599 137.998 67.7989 130.198L69.5989 128.398L60.599 119.398L58.799 121.198Z" fill="#17313B"/>
</svg>
