<svg width="300" height="200" viewBox="0 0 300 200" fill="none" xmlns="http://www.w3.org/2000/svg">
<path d="M33.7224 68.9163C39.1698 69.9531 43.9254 72.9773 47.2111 77.2112C50.3239 81.1858 52.2261 86.2837 52.2261 91.7272C52.2261 95.2699 50.2374 100.713 46.6058 107.367C47.7299 109.268 48.9404 111.341 50.3239 113.588C54.9066 105.638 58.3652 97.6028 58.3652 91.7272C58.3652 85.074 56.2901 78.9393 52.7449 74.0142C49.3728 69.3483 44.7901 65.6329 39.3427 63.6456C36.4028 62.4359 33.1171 61.8311 29.6585 61.8311C13.7487 61.8311 0.865234 75.2239 0.865234 91.7272C0.865234 103.738 15.3051 124.561 23.8652 135.88C25.2487 137.781 27.4103 138.818 29.6585 138.818C31.9066 138.818 34.0682 137.781 35.4517 135.88C37.2675 133.547 39.2562 130.782 41.4179 127.758C40.1209 125.857 38.9104 123.956 37.6998 122.055C35.5382 125.166 33.2036 128.363 30.6961 131.733C30.2637 132.338 29.2261 132.338 28.7073 131.733C15.1322 113.847 7.0908 98.8989 7.0908 91.7272C7.0908 78.9393 17.2073 68.4843 29.6585 68.4843C31.0419 68.4843 32.3389 68.6571 33.7224 68.9163Z" fill="#D37728"/>
<path d="M46.8669 127.758C48.9421 130.782 51.0173 133.547 52.8331 135.88C54.2165 137.781 56.3782 138.818 58.6263 138.818C60.8744 138.818 63.0361 137.781 64.4196 135.88C72.8932 124.561 87.3331 103.651 87.3331 91.7272C87.3331 75.2239 74.4496 61.8311 58.5399 61.8311C55.0812 61.8311 51.7955 62.4359 48.7692 63.6456C50.8444 65.2009 52.8331 66.929 54.4759 68.9163C55.7729 68.6571 57.1564 68.4843 58.5399 68.4843C70.991 68.4843 81.1075 78.8529 81.1075 91.7272C81.1075 98.8989 73.0662 113.847 59.491 131.733C59.0587 132.338 58.0211 132.338 57.5023 131.733C54.9947 128.363 52.6602 125.166 50.4985 122.055C46.8669 116.698 43.7541 111.773 41.4196 107.367C37.788 100.627 35.8857 95.1835 35.8857 91.7272C35.8857 86.1973 37.788 81.1858 40.9008 77.2112C39.2579 75.8287 37.3556 74.7918 35.2805 74.0142C31.7353 78.9393 29.6602 85.074 29.6602 91.7272C29.6602 97.6028 33.1188 105.638 37.7015 113.588C40.5549 118.513 43.7541 123.352 46.8669 127.758Z" fill="#D37728"/>
<path d="M133.762 85.7678V110.134C133.762 121.367 127.796 127.242 116.296 127.242C104.71 127.242 99.1758 121.453 99.1758 110.048V85.4222C99.1758 83.8669 100.386 82.4844 102.202 82.4844C104.104 82.4844 105.401 83.8669 105.401 85.4222V109.875C105.401 118.256 108.86 121.712 116.296 121.712C123.646 121.712 127.537 118.429 127.537 110.048V85.7678C127.537 83.9533 128.834 82.4844 130.563 82.4844C132.465 82.4844 133.762 83.9533 133.762 85.7678Z" fill="#394053"/>
<path d="M169.301 111.43C169.301 121.712 163.681 127.242 153.651 127.242C151.057 127.242 148.895 126.81 147.166 126.205V135.278C147.166 136.833 146.042 138.129 144.14 138.129C142.324 138.129 141.113 136.833 141.113 135.278V99.1605C141.113 97.6052 142.237 96.5684 143.707 96.5684C145.35 96.5684 146.128 97.6052 146.301 99.1605L146.474 101.493C148.29 98.6421 151.403 96.5684 156.072 96.5684C164.286 96.5684 169.301 101.321 169.301 111.43ZM163.249 111.776C163.249 104.777 160.136 101.753 155.034 101.753C150.452 101.753 147.166 104.95 147.166 109.097H147.079V120.848C148.722 121.539 150.711 122.231 153.305 122.231C159.444 122.144 163.249 119.12 163.249 111.776Z" fill="#394053"/>
<path d="M212.103 94.1491C212.103 95.7908 210.892 96.6548 209.509 96.6548C207.952 96.6548 207.261 96.1364 206.828 94.7539C205.877 92.5938 203.975 87.9279 196.452 87.9279C187.979 87.9279 182.445 93.285 182.445 104.345C182.445 115.923 188.411 121.626 198.095 121.626C203.024 121.626 206.137 120.157 207.607 119.639C208.212 119.466 208.731 119.293 209.422 119.293C210.892 119.293 211.843 120.416 211.843 121.799C211.843 123.268 211.238 123.959 210.114 124.65C207.347 126.205 202.159 127.242 197.403 127.242C184.261 127.242 176.133 119.466 176.133 104.777C176.133 90.3472 184.088 82.4844 196.279 82.4844C207.261 82.4844 212.103 88.9648 212.103 94.1491Z" fill="#394053"/>
<path d="M218.588 87.4097C218.588 85.0767 220.231 83.3486 222.479 83.3486C224.813 83.3486 226.37 85.0767 226.37 87.4097C226.37 89.7426 224.813 91.4707 222.479 91.4707C220.231 91.4707 218.588 89.7426 218.588 87.4097ZM225.332 99.2472V124.305C225.332 125.86 224.208 127.156 222.306 127.156C220.49 127.156 219.28 125.86 219.28 124.305V99.2472C219.28 97.6919 220.49 96.3958 222.306 96.3958C224.122 96.4822 225.332 97.6919 225.332 99.2472Z" fill="#394053"/>
<path d="M242.278 102.011V118.083C242.278 121.107 243.662 121.885 245.737 121.885C246.256 121.885 246.774 121.798 247.812 121.712C249.541 121.453 250.406 122.749 250.406 124.045C250.406 125.254 249.714 126.464 248.244 126.723C247.034 126.896 245.65 127.069 244.267 127.069C238.993 127.069 236.399 125.168 236.399 118.515V102.011H233.372C232.075 102.011 230.951 100.975 230.951 99.5056C230.951 97.9504 232.075 96.9999 233.372 96.9999H236.399V91.2107C236.399 89.6555 237.609 88.3594 239.425 88.3594C241.241 88.3594 242.365 89.6555 242.365 91.2107V96.9999H248.071C249.455 96.9999 250.493 97.9504 250.493 99.5056C250.493 100.975 249.455 102.011 248.071 102.011H242.278Z" fill="#394053"/>
<path d="M281.967 98.9877C281.967 99.5061 281.794 100.111 281.535 100.629L268.738 131.13C266.576 136.228 263.377 137.956 258.708 137.956C257.67 137.956 257.151 137.87 256.719 137.87C255.163 137.697 254.212 136.747 254.212 135.278C254.212 133.895 255.076 132.686 256.633 132.772C257.065 132.772 257.497 132.858 258.448 132.858C261.388 132.858 263.118 131.908 263.982 129.575L265.279 126.292L254.212 100.716C253.952 100.197 253.779 99.5925 253.779 99.0741C253.779 97.346 255.163 96.3955 256.633 96.3955C257.757 96.3955 258.967 97.0867 259.486 98.3828L268.133 119.206L276.433 98.2964C276.952 97.0003 277.99 96.4819 279.287 96.4819C280.497 96.3955 281.967 97.2596 281.967 98.9877Z" fill="#394053"/>
<path d="M298.135 100.282C298.135 100.714 297.876 100.973 297.443 100.973C297.011 100.973 296.752 100.714 296.752 100.282L296.665 96.3937L295.109 99.8499C294.936 100.195 294.676 100.368 294.417 100.368C294.158 100.368 293.898 100.195 293.725 99.9363L292.082 96.3072L291.996 100.282C291.996 100.714 291.737 100.973 291.304 100.973C290.872 100.973 290.612 100.714 290.612 100.282L290.699 95.8752H288.537V100.282C288.537 100.714 288.278 100.973 287.846 100.973C287.413 100.973 287.154 100.714 287.154 100.282V95.8752H285.597C285.252 95.8752 284.992 95.616 284.992 95.2704C284.992 94.9248 285.252 94.752 285.597 94.752H291.391C292.082 94.752 292.601 95.0976 292.947 95.616L294.331 98.7266L295.8 95.5296C296.06 95.0112 296.492 94.752 296.925 94.752C297.53 94.752 297.962 95.184 297.962 95.8752L298.135 100.282Z" fill="#394053"/>
</svg>
