<svg width="300" height="200" viewBox="0 0 300 200" fill="none" xmlns="http://www.w3.org/2000/svg">
<mask id="mask0_3649_2497" style="mask-type:luminance" maskUnits="userSpaceOnUse" x="1" y="65" width="299" height="69">
<path d="M300 65.667H1V133.332H300V65.667Z" fill="white"/>
</mask>
<g mask="url(#mask0_3649_2497)">
<path d="M53.4668 93.4922H63.5193C71.6103 93.4922 77.2495 99.0084 77.2495 106.118V106.241C77.2495 113.351 71.7329 118.867 63.5193 118.867H53.4668V93.4922ZM63.5193 113.718C68.1777 113.718 71.2425 110.654 71.2425 106.241V106.118C71.2425 101.705 68.1777 98.5181 63.5193 98.5181H59.2286V113.718H63.5193Z" fill="black"/>
<path d="M82.1543 93.4922H101.646V98.3955H87.9161V103.544H100.053V108.447H87.9161V113.718H101.891V118.622H82.2769L82.1543 93.4922Z" fill="black"/>
<path d="M105.08 115.067L108.513 111.145C110.842 112.983 113.294 114.209 116.236 114.209C118.565 114.209 119.914 113.228 119.914 111.88V111.757C119.914 110.287 118.933 109.551 114.765 108.57C109.616 107.222 106.183 105.874 106.183 100.848V100.725C106.183 96.1896 109.861 93.125 115.255 93.125C118.933 93.125 122.243 94.2282 124.817 96.3121L121.875 100.603C119.668 99.0089 117.339 98.1509 115.133 98.1509C112.926 98.1509 111.823 99.1315 111.823 100.357V100.235C111.823 101.828 112.926 102.441 117.339 103.544C122.611 104.893 125.43 106.732 125.43 111.022V111.145C125.43 116.17 121.507 118.99 115.991 118.99C112.068 118.99 108.145 117.641 105.08 115.067Z" fill="black"/>
<path d="M130.574 93.4922H136.213V118.744H130.574V93.4922Z" fill="black"/>
<path d="M141.607 106.118C141.607 98.8859 147.247 93.002 155.092 93.002C159.751 93.002 162.448 94.2278 165.145 96.5568L161.59 100.847C159.628 99.2536 157.912 98.273 154.847 98.273C150.679 98.273 147.492 101.828 147.492 106.118V106.241C147.492 110.899 150.679 114.331 155.338 114.331C157.422 114.331 159.261 113.841 160.732 112.738V109.183H154.97V104.402H166.126V115.312C163.429 117.518 159.874 119.357 155.092 119.357C147.001 118.989 141.607 113.596 141.607 106.118Z" fill="black"/>
<path d="M171.523 93.4922H176.795L188.809 108.938V93.4922H194.325V118.744H189.544L177.04 102.686V118.744H171.523V93.4922Z" fill="black"/>
<path d="M200.579 93.4922H212.348C215.658 93.4922 218.11 94.4728 219.826 96.0664C221.297 97.5374 222.033 99.4987 222.033 101.828V101.95C222.033 105.996 219.826 108.57 216.516 109.796L222.768 118.744H216.148L210.632 110.654H210.509H206.096V118.744H200.334V93.4922H200.579ZM211.98 105.628C214.8 105.628 216.271 104.157 216.271 102.073V101.95C216.271 99.6213 214.677 98.3955 211.858 98.3955H206.218V105.628H211.98Z" fill="black"/>
<path d="M226.812 107.834V93.3697H232.452V107.589C232.452 111.757 234.537 113.718 237.969 113.718C241.402 113.718 243.486 111.634 243.486 107.589V93.2471H249.124V107.467C249.124 115.067 244.711 118.867 237.846 118.867C230.981 118.867 226.812 115.189 226.812 107.834Z" fill="black"/>
<path d="M253.172 115.066L256.604 111.144C258.934 112.982 261.385 114.208 264.328 114.208C266.657 114.208 268.005 113.228 268.005 111.879V111.757C268.005 110.286 267.025 109.55 262.857 108.569C257.708 107.221 254.275 105.873 254.275 100.847V100.724C254.275 96.1886 257.953 93.124 263.347 93.124C267.025 93.124 270.335 94.2273 272.909 96.3112L269.967 100.602C267.76 99.008 265.431 98.1499 263.224 98.1499C261.018 98.1499 259.914 99.1306 259.914 100.356V100.234C259.914 101.827 261.018 102.44 265.431 103.544C270.702 104.892 273.522 106.731 273.522 111.021V111.144C273.522 116.169 269.599 118.989 264.083 118.989C260.282 118.989 256.237 117.64 253.172 115.066Z" fill="black"/>
<path d="M278.426 93.4922H284.065V103.544H294.485V93.4922H300.124V118.744H294.485V108.692H284.065V118.744H278.426V93.4922Z" fill="black"/>
<path d="M21.105 107.712C20.9824 107.712 20.9824 107.589 21.105 107.712L20.492 107.344L20.3694 107.221L5.90365 96.9245C5.90365 96.9245 5.78106 96.9245 5.78106 96.8019L5.53588 96.5567L5.41328 96.4342H5.1681L1 93.4922L9.21361 94.718C9.58139 94.718 9.70398 94.8406 10.0718 94.9632C10.1943 94.9632 10.4395 95.0858 10.4395 95.0858C10.8073 95.2083 10.9299 95.3309 11.1751 95.4535C11.4203 95.5761 11.5428 95.6987 11.788 95.8212C11.9106 95.9438 12.1558 96.0664 12.1558 96.189C12.2784 96.3116 12.401 96.3116 12.5236 96.4342C12.7688 96.5567 12.8913 96.6793 12.8913 96.8019C13.2591 97.1697 13.5043 97.5374 13.8721 97.7826L20.3694 106.976L20.492 107.099L21.105 107.712Z" fill="black"/>
<path d="M21.1054 121.931L20.4925 120.951L20.3699 120.828L1.12305 93.4922L5.29115 96.4342L6.0267 96.9245L20.4925 107.221H20.6151L21.1054 107.589C21.1054 107.589 21.228 107.589 21.228 107.712L21.841 107.221L41.333 93.4922L21.7184 120.951L21.5958 121.073L21.1054 121.931Z" fill="black"/>
<path d="M21.1045 103.054L20.4915 102.074L20.3689 101.951L15.5879 95.3316L20.3689 96.3122H20.4915L21.1045 96.4348L21.7175 96.3122L26.3759 95.209L21.7175 102.074V102.196L21.1045 103.054Z" fill="black"/>
<path d="M41.4537 93.3721L35.3241 94.2301L32.9949 94.5979C31.156 94.8431 29.4397 95.8237 28.3364 97.4173L21.8391 106.734L21.7165 106.856L21.1035 107.714L21.8391 106.979L21.9617 106.856L21.1035 107.714L37.6533 95.9463L41.4537 93.3721Z" fill="black"/>
<path d="M24.1682 74.0021C24.1682 79.3957 14.8513 82.2151 14.8513 87.9764C14.7287 89.3248 15.0965 90.6733 15.7094 91.8991C15.7094 91.8991 12.1543 88.4668 12.1543 84.7893C12.1543 81.1118 15.5869 75.5956 15.5869 75.5956C15.5869 78.0473 16.5676 78.7828 17.5483 78.9054H17.6709C18.7742 78.9054 19.3872 78.0473 19.3872 76.8215C19.3872 75.5956 18.0387 74.3698 18.0387 71.9182C18.0387 69.5891 20.9809 65.7891 20.9809 65.7891C23.0649 68.2407 24.1682 71.0601 24.1682 74.0021Z" fill="black"/>
<path d="M21.5902 93.6132C18.648 93.6132 16.4414 91.2842 16.4414 88.4648V88.3422C16.4414 82.0905 25.1454 81.4776 25.1454 73.0194C25.3906 73.3872 27.7198 76.5743 27.7198 80.0066C27.7198 84.297 23.6743 85.4002 23.6743 87.4841C23.6743 88.3422 24.0421 88.9551 25.268 88.9551C25.3906 88.9551 25.5132 88.9551 25.6357 88.8325C27.965 87.8519 29.5587 85.6454 29.6813 83.0712C29.6813 83.1938 30.9072 93.6132 21.5902 93.6132Z" fill="black"/>
<path d="M25.3921 88.9551C25.5147 88.9551 25.6372 88.9551 25.7598 88.8325C24.5339 89.2003 19.998 90.3035 19.998 87.1164C19.998 83.1938 26.7406 82.3357 26.7406 79.026C26.7406 76.9421 26.2502 74.8582 25.1469 73.0194C25.3921 73.3872 27.7213 76.5743 27.7213 80.0066C27.7213 84.297 23.6758 85.4002 23.6758 87.4841C23.7984 88.3422 24.2887 88.9551 25.3921 88.9551Z" fill="black"/>
<path d="M21.715 76.2086C21.715 79.2731 17.7921 79.0279 17.5469 78.9054H17.9146C19.018 78.9054 19.6309 78.0473 19.6309 76.8215C19.6309 75.5956 18.2824 74.3698 18.2824 71.9182C18.2824 69.5891 21.2246 65.7891 21.2246 65.7891C20.2439 67.3826 19.7535 69.0988 19.6309 70.8149C19.6309 73.6343 21.715 73.8795 21.715 76.2086Z" fill="black"/>
<path d="M19.2615 129.776L16.5645 127.938H19.8744L20.9777 124.628L21.9585 127.938H25.2684L22.5714 129.776L23.5522 132.964L20.8551 131.002L18.0355 132.964L19.2615 129.776Z" fill="black"/>
<path d="M33.363 129.776L30.666 127.938H33.976L35.0793 124.628L36.06 127.938H39.37L36.673 129.776L37.6537 132.964L34.9567 131.002L32.1371 132.964L33.363 129.776Z" fill="black"/>
<path d="M5.2888 129.776L2.5918 127.938H5.90176L7.00508 124.628L7.98581 127.938H11.2958L8.59877 129.776L9.5795 132.964L6.88249 131.002L4.18548 132.964L5.2888 129.776Z" fill="black"/>
</g>
</svg>
