<svg width="300" height="200" viewBox="0 0 300 200" fill="none" xmlns="http://www.w3.org/2000/svg">
<g clip-path="url(#clip0_3646_2494)">
<path d="M20.1825 93.5547C20.1825 93.5547 17.7264 93.3103 17.7264 95.4989V105.22H33.9456V108.137C33.9456 108.137 33.994 109.595 32.4711 109.595H17.7264V122.233H35.42C35.42 122.233 46.1331 120.58 46.2321 109.595V93.5547H20.1825ZM45.7392 77.999H13.7938C2.24239 80.7205 1.99805 90.1992 1.99805 90.1992V122.233H14.2867V93.0681C14.2867 90.5889 16.7427 90.1529 16.7427 90.1529H45.7413L45.7392 77.999ZM87.9132 113.066C87.0706 113.628 86.4471 114.041 86.0069 114.305C84.4313 115.28 82.9295 116.032 81.5372 116.632C79.5214 117.458 77.7246 117.871 76.1132 117.871C70.5798 117.871 65.9984 116.181 62.2954 112.765C58.5923 109.348 56.764 105.07 56.764 99.8907C56.764 94.8985 58.4133 90.5804 61.7477 86.9006C65.0821 83.2229 69.1137 81.4198 73.8784 81.4198C75.8584 81.4198 77.9816 81.7568 80.1807 82.473C83.039 83.3724 85.3476 84.7247 87.1802 86.4877L83.9911 90.0159C82.6367 88.7037 80.8779 87.7263 78.8241 87.126C77.2865 86.6752 75.6014 86.4519 73.7309 86.4519C70.3965 86.4519 67.574 87.8 65.3391 90.4667C63.1042 93.1692 61.9689 96.3604 61.9689 100.114C61.9689 103.832 63.2496 106.871 65.8151 109.313C68.3807 111.752 71.6414 112.99 75.5993 112.99C77.2486 112.99 78.9358 112.464 80.6567 111.453C82.0869 110.364 82.82 109.837 82.8558 109.799V102.104H72.1553L73.693 97.2998H87.9132V113.066ZM120.236 103.68C120.236 107.396 118.917 110.625 116.278 113.327C113.638 116.03 110.378 117.42 106.494 117.42C102.902 117.42 99.7511 116.068 97.038 113.403C94.325 110.739 93.0064 107.509 93.0064 103.718C93.0064 99.9644 94.2913 96.7353 96.8548 93.957C99.4183 91.1787 102.572 89.8285 106.272 89.8285C110.378 89.8285 113.712 91.1429 116.314 93.8074C118.917 96.3983 120.236 99.7011 120.236 103.68ZM115.214 103.756C115.214 101.241 114.371 99.1008 112.686 97.3735C111.001 95.6084 108.912 94.7448 106.42 94.7448C104.075 94.7448 102.095 95.6463 100.446 97.4494C98.7969 99.2503 97.9901 101.315 97.9901 103.642C97.9901 106.083 98.8327 108.148 100.482 109.875C102.131 111.602 104.185 112.502 106.675 112.502C108.985 112.502 110.963 111.638 112.651 109.911C114.371 108.183 115.214 106.119 115.214 103.756ZM152.118 103.68C152.118 107.396 150.799 110.625 148.16 113.327C145.521 116.03 142.26 117.42 138.376 117.42C134.784 117.42 131.633 116.068 128.92 113.403C126.209 110.739 124.889 107.509 124.889 103.718C124.889 99.9644 126.174 96.7353 128.737 93.957C131.303 91.1787 134.454 89.8285 138.155 89.8285C142.26 89.8285 145.594 91.1429 148.196 93.8074C150.799 96.3983 152.118 99.7011 152.118 103.68ZM147.096 103.756C147.096 101.241 146.254 99.1008 144.569 97.3735C142.883 95.6084 140.794 94.7448 138.302 94.7448C135.958 94.7448 133.978 95.6463 132.328 97.4494C130.679 99.2503 129.872 101.315 129.872 103.642C129.872 106.083 130.715 108.148 132.366 109.875C134.013 111.602 136.067 112.502 138.559 112.502C140.868 112.502 142.846 111.638 144.533 109.911C146.254 108.183 147.096 106.119 147.096 103.756ZM181.62 116.668L177.003 117.382V112.914L176.013 114.039C175.141 114.856 174.153 115.54 173.081 116.068C171.507 116.793 169.794 117.165 168.061 117.157C164.47 117.157 161.39 115.842 158.898 113.176C156.406 110.509 155.162 107.358 155.162 103.68C155.162 99.8886 156.406 96.6237 158.862 93.9191C161.319 91.2145 164.322 89.8643 167.914 89.8643C169.967 89.8643 171.762 90.2013 173.264 90.8774C174.328 91.3661 175.244 92.0044 176.013 92.7943C176.27 93.1313 176.527 93.5062 176.784 93.8432V82.1317L181.691 81.4177L181.62 116.668ZM177.295 104.017C177.295 101.39 176.415 99.1745 174.62 97.3735C172.826 95.5326 170.808 94.6331 168.501 94.6331C165.936 94.6331 163.884 95.4967 162.309 97.224C160.84 98.8733 160.072 100.902 160.072 103.267C160.072 105.932 160.84 108.146 162.38 109.873C163.918 111.6 165.862 112.464 168.244 112.464C170.589 112.464 172.642 111.676 174.475 110.062C176.343 108.409 177.295 106.383 177.295 104.017ZM207.528 87.0143H193.786V96.3604H204.449V101.165H193.786V116.632L188.436 117.42V82.1697H206.465L207.528 87.0143ZM218.559 84.2718L215.261 88.4383L212.11 84.2718L215.444 80.1433L218.559 84.2718ZM217.569 116.668L212.66 117.344V91.2545L217.569 90.5046V116.668ZM239.741 90.2413L237.433 95.5705C237.129 95.5242 236.823 95.4996 236.516 95.4967C236.04 95.4967 235.564 95.5347 235.086 95.6084C234.608 95.6821 234.096 95.8717 233.549 96.135C232.523 96.5857 231.642 97.561 230.873 99.0249C230.023 100.686 229.582 102.527 229.588 104.394V116.632L224.681 117.42V91.2545L229.224 90.4288V95.8717C229.81 94.9322 230.433 93.9949 231.019 93.0196C231.861 92.0423 232.851 91.3303 233.951 90.9154C234.536 90.6921 235.6 90.5025 237.211 90.353C238.751 90.2413 239.632 90.1655 239.741 90.2413ZM276.312 116.668L271.402 117.382V99.4757C271.402 97.8222 271.036 96.6216 270.303 95.8717C269.57 95.1197 268.47 94.7448 267.04 94.7448C265.319 94.7448 263.998 95.4588 263.12 96.8849C262.532 97.8601 262.204 98.9112 262.204 99.9623V116.63L257.294 117.532V99.5873C257.294 98.0118 256.927 96.809 256.23 95.9854C255.497 95.1576 254.545 94.7448 253.298 94.7448H252.822C251.099 94.7448 249.852 95.4588 249.083 96.9228C248.498 98.0118 248.205 99.3999 248.205 101.089V116.63L243.111 117.532V91.2545L247.691 90.4667V93.8074C248.205 93.0175 248.717 92.3793 249.195 91.9306C250.513 90.6921 252.053 90.0897 253.774 90.0897C255.716 90.0897 257.144 90.3909 258.134 91.0291C258.977 91.5557 259.783 92.6047 260.59 94.1065C262.275 91.442 264.658 90.0897 267.811 90.0897C270.815 90.0897 273.052 91.0291 274.516 92.9438C275.727 94.5194 276.312 96.8469 276.312 99.8886V116.668ZM298.745 108.748C298.745 111.149 297.903 113.14 296.218 114.68C294.532 116.255 292.405 117.007 289.839 117.007C287.897 117.007 286.174 116.556 284.599 115.655C283.023 114.755 281.852 113.74 281.081 112.539L284.527 109.462C284.782 109.837 285.003 110.136 285.222 110.361C286.507 111.676 288.045 112.352 289.839 112.352C291.086 112.352 292.076 112.015 292.772 111.377C293.505 110.739 293.835 109.837 293.835 108.672C293.835 107.36 292.993 106.458 291.308 105.97C287.971 104.957 286.174 104.394 285.919 104.28C284.38 103.493 283.28 102.667 282.583 101.727C281.814 100.638 281.412 99.2124 281.412 97.3735C281.412 95.1197 282.254 93.245 283.904 91.7432C285.553 90.2413 287.531 89.5273 289.802 89.5273C291.527 89.5273 293.138 89.9022 294.604 90.6921C296.07 91.4799 297.132 92.3056 297.755 93.2829L294.823 96.472C294.383 96.0312 293.905 95.6295 293.395 95.2714C292.222 94.4457 291.086 94.0328 290.025 94.0328C288.997 94.0328 288.154 94.2582 287.495 94.7069C286.724 95.2714 286.322 96.0971 286.322 97.1861C286.322 98.2372 286.688 99.0249 287.459 99.5136C288.119 99.9265 289.511 100.377 291.71 100.864C293.907 101.39 295.594 102.292 296.803 103.568C298.16 104.919 298.745 106.608 298.745 108.748Z" fill="#3A7AF3"/>
</g>
<defs>
<clipPath id="clip0_3646_2494">
<rect width="297" height="44.234" fill="white" transform="translate(2 78)"/>
</clipPath>
</defs>
</svg>
